<?xml version="1.0" standalone="no"?>
<!DOCTYPE svg PUBLIC "-//W3C//DTD SVG 20010904//EN"
 "http://www.w3.org/TR/2001/REC-SVG-20010904/DTD/svg10.dtd">
<svg version="1.0" xmlns="http://www.w3.org/2000/svg"
 width="700.000000pt" height="700.000000pt" viewBox="0 0 700.000000 700.000000"
 preserveAspectRatio="xMidYMid meet">
<metadata>
Created by potrace 1.14, written by Peter Selinger 2001-2017
</metadata>
<g transform="translate(0.000000,700.000000) scale(0.100000,-0.100000)"
fill="#000000" stroke="none">
<path d="M1324 5640 c-53 -146 -108 -294 -121 -330 -14 -36 -29 -78 -34 -95
-5 -16 -13 -39 -18 -50 -5 -11 -29 -76 -54 -145 -25 -69 -68 -186 -95 -260
-28 -74 -67 -183 -89 -242 l-39 -106 2 -274 c1 -295 5 -347 36 -447 34 -113
108 -250 165 -306 16 -16 17 -97 17 -1264 l1 -1246 2405 0 2405 0 1 1240 1
1240 65 97 c70 103 117 217 139 329 7 38 13 176 14 344 l2 280 -87 240 c-49
132 -143 391 -210 575 -66 184 -125 344 -130 355 -8 18 -43 112 -99 270 l-22
61 -2079 0 -2079 0 -97 -266z m4043 -430 c51 -140 120 -327 152 -415 33 -88
61 -169 63 -180 3 -20 -3 -20 -2084 -20 -1149 -1 -2088 0 -2088 1 0 4 71 203
135 374 42 113 77 210 79 215 2 6 6 17 9 25 4 8 22 58 41 110 19 52 39 107 45
123 l11 27 1772 -2 1772 -3 93 -255z m-3293 -1210 c-1 -135 -4 -162 -23 -213
-66 -169 -243 -278 -407 -250 -124 22 -227 96 -281 204 -43 86 -46 102 -49
269 l-3 145 382 0 382 0 -1 -155z m1204 -5 c-3 -142 -7 -166 -28 -215 -59
-135 -159 -217 -292 -241 -189 -34 -374 92 -428 291 -10 38 -22 304 -14 320 1
3 174 5 384 5 l382 0 -4 -160z m1207 45 c1 -147 -9 -210 -44 -286 -75 -161
-262 -254 -424 -211 -130 34 -228 125 -272 253 -25 74 -28 101 -26 289 l1 71
382 -1 382 0 1 -115z m1198 111 c4 0 6 -70 4 -153 -4 -125 -9 -163 -26 -208
-110 -286 -464 -346 -650 -110 -68 86 -83 142 -87 320 l-4 155 377 -1 c208 -1
382 -2 386 -3z m-3346 -827 c213 -207 525 -282 803 -192 122 39 220 97 307
181 l52 50 31 -32 c18 -17 49 -44 69 -59 20 -15 38 -30 41 -33 13 -16 144 -82
208 -103 131 -45 294 -53 437 -21 121 26 270 107 369 200 l49 46 41 -39 c187
-177 415 -250 684 -219 l42 5 0 -898 0 -899 -544 1 c-405 0 -546 3 -548 11 -2
7 -4 301 -4 654 1 565 -1 642 -14 645 -8 2 -402 4 -875 3 l-860 0 0 -655 0
-655 -548 -1 -547 -1 0 899 0 898 33 -6 c62 -12 193 -10 270 3 150 25 297 98
410 204 29 26 53 48 54 49 2 0 20 -16 40 -36z m1598 -1574 l0 -435 -436 -1
-436 -1 0 431 c0 237 1 434 3 438 3 3 199 6 437 5 l432 -2 0 -435z"/>
</g>
</svg>
