<?xml version="1.0" encoding="UTF-8" standalone="no"?>
<!-- Created with Inkscape (http://www.inkscape.org/) -->

<svg
   width="507.97192mm"
   height="457.49765mm"
   viewBox="0 0 507.97192 457.49765"
   version="1.1"
   id="svg1"
   xml:space="preserve"
   inkscape:version="1.3.2 (091e20e, 2023-11-25, custom)"
   sodipodi:docname="racoon.svg"
   xmlns:inkscape="http://www.inkscape.org/namespaces/inkscape"
   xmlns:sodipodi="http://sodipodi.sourceforge.net/DTD/sodipodi-0.dtd"
   xmlns="http://www.w3.org/2000/svg"
   xmlns:svg="http://www.w3.org/2000/svg"><sodipodi:namedview
     id="namedview1"
     pagecolor="#ffffff"
     bordercolor="#000000"
     borderopacity="0.25"
     inkscape:showpageshadow="2"
     inkscape:pageopacity="0.0"
     inkscape:pagecheckerboard="0"
     inkscape:deskcolor="#d1d1d1"
     inkscape:document-units="mm"
     showgrid="false"
     inkscape:zoom="0.70710678"
     inkscape:cx="881.76216"
     inkscape:cy="1171.6759"
     inkscape:window-width="3840"
     inkscape:window-height="2089"
     inkscape:window-x="-8"
     inkscape:window-y="-8"
     inkscape:window-maximized="1"
     inkscape:current-layer="layer1"><inkscape:grid
       id="grid1"
       units="mm"
       originx="147.74245"
       originy="78.249058"
       spacingx="0.99999998"
       spacingy="1"
       empcolor="#0099e5"
       empopacity="0.30196078"
       color="#0099e5"
       opacity="0.14901961"
       empspacing="5"
       dotted="false"
       gridanglex="30"
       gridanglez="30"
       visible="false" /></sodipodi:namedview><defs
     id="defs1" /><g
     inkscape:label="Warstwa 1"
     inkscape:groupmode="layer"
     id="layer1"
     transform="translate(147.74245,78.249058)"><path
       style="fill:#000000"
       d="m 91.453806,378.50087 c -0.91186,-1.53478 -2.75421,-4.43901 -3.00894,-4.7432 -0.12186,-0.14552 -0.5394,-0.7561 -0.92787,-1.35684 -3.01697,-4.66555 -8.3735,-11.21808 -13.57327,-16.60389 l -3.80179,-3.93782 0.0608,4.33469 c 0.0335,2.38408 0.10608,5.74253 0.16139,7.46321 0.0783,2.43675 0.0308,3.05103 -0.21507,2.77812 -0.1736,-0.19271 -1.21638,-1.42195 -2.31728,-2.73163 -3.6027,-4.28594 -10.16235,-10.41008 -14.99284,-13.99744 -0.96087,-0.71359 -1.80657,-1.37507 -1.87933,-1.46994 -0.18266,-0.23818 -5.75086,-4.07868 -8.33128,-5.74625 -5.55403,-3.58924 -11.07858,-6.68762 -18.00315,-10.09685 -2.76028,-1.35899 -5.24286,-2.59025 -5.51683,-2.73615 -2.10793,-1.12249 -16.6204997,-7.03438 -18.41956963,-7.50347 -0.38701,-0.1009 -8.73896997,-2.89553 -11.11250037,-3.71831 -0.65485,-0.22701 -1.41857,-0.46009 -1.69716,-0.51796 -0.27859,-0.0579 -1.05249,-0.27271 -1.71979,-0.47742 -2.09097,-0.64146 -3.57961,-1.06783 -3.99139,-1.14319 -0.34045,-0.0623 -2.92778,-0.72023 -7.67291,-1.95113 -1.75714,-0.4558 -5.58946,-1.3255 -6.35,-1.44104 -0.36381,-0.0553 -1.43537,-0.27111 -2.38125,-0.47962 -0.94589,-0.20852 -2.91042,-0.58451 -4.36563,-0.83553 -1.45521,-0.25102 -3.56784,-0.6533 -4.69474,-0.89397 l -2.04892,-0.43757 4.16558,-2.37565 c 4.37538,-2.49531 5.55717,-3.13396 8.79579,-4.75334 1.09141,-0.54573 2.63922,-1.32491 3.43958,-1.73152 0.80037,-0.4066 2.94349,-1.35504 4.7625,-2.10762 5.53443,-2.28979 5.26426,-2.0341 2.38125,-2.25365 -3.54362,-0.26985 -21.50979,-0.0169 -25.00312,0.35206 -1.60073,0.16905 -4.69636,0.49007 -6.87917,0.71336 -5.02748,0.5143 -9.68879,1.11434 -12.56183,1.61706 -1.23369,0.21587 -2.66244,0.44393 -3.175,0.5068 -0.51255,0.0629 -1.82489,0.29504 -2.91629,0.51594 -1.09141,0.2209 -2.93688,0.59321 -4.10104,0.82737 -1.16417,0.23416 -2.71198,0.58472 -3.43959,0.77903 -0.7276,0.1943 -1.69735,0.41596 -2.155,0.49257 -0.45764,0.0766 -1.9953,0.4489 -3.41702,0.82731 -1.42172,0.3784 -2.84576,0.7353 -3.16455,0.79311 -0.31878,0.0578 -1.07307,0.27921 -1.6762,0.49201 -0.60313,0.21279 -1.0966,0.286 -1.0966,0.16268 0,-0.25823 3.88032,-3.81981 6.20824,-5.69826 0.86791,-0.70034 1.7605,-1.45582 1.98352,-1.67885 0.43569,-0.43569 3.09771,-2.45865 6.33741,-4.81601 2.72635,-1.98382 6.69001,-4.57435 10.2925,-6.72685 1.64644,-0.98376 2.95258,-1.82961 2.90252,-1.87967 -0.0501,-0.0501 -0.62325,-0.11232 -1.27375,-0.13834 -0.65051,-0.026 -2.2543,-0.2081 -3.56398,-0.40462 -1.30969,-0.19653 -2.79797,-0.37761 -3.3073,-0.40241 -0.50932,-0.0248 -2.13652,-0.20469 -3.616,-0.39976 -1.47948,-0.19506 -3.56307,-0.41754 -4.63021,-0.4944 -1.06713,-0.0769 -3.72618,-0.31146 -5.90899,-0.52134 -14.601576,-1.40397 -36.781706,-2.72039 -49.188576,-2.91942 -4.35247,-0.0698 -7.96565,-0.17902 -8.02929,-0.24267 -0.18944,-0.18943 1.91812,-1.17863 5.19476,-2.43818 1.69135,-0.65017 3.25378,-1.22595 3.47206,-1.27952 0.21828,-0.0536 1.2171,-0.40965 2.2196,-0.79128 1.69502,-0.64526 9.32434,-3.23063 10.21581,-3.46186 0.21829,-0.0566 1.7661,-0.52938 3.43959,-1.05057 1.67349,-0.5212 3.93568,-1.19025 5.02708,-1.48678 3.64467,-0.99025 5.947,-1.58551 6.61458,-1.7102 0.36381,-0.0679 1.19724,-0.28218 1.85209,-0.47608 0.65484,-0.1939 2.08359,-0.55334 3.175,-0.79875 1.0914,-0.24542 2.698751,-0.60769 3.571871,-0.80505 0.87312,-0.19736 2.540005,-0.54709 3.704175,-0.77718 1.16416,-0.23008 3.02638,-0.60704 4.13825,-0.83767 1.11187,-0.23063 2.3025,-0.45393 2.64583,-0.49622 0.34334,-0.0423 1.63628,-0.26437 2.87321,-0.49351 4.48482,-0.83081 10.74168,-1.73732 16.66875,-2.41502 1.96453,-0.22462 5.11968,-0.58662 7.01146,-0.80446 1.89177,-0.21783 4.39208,-0.45531 5.55625,-0.52773 1.16416,-0.0724 3.72401,-0.30675 5.68854,-0.52073 7.09246,-0.77253 15.45844,-1.07454 29.76562,-1.07454 14.3606904,0 20.67603037,0.24208 28.5750004,1.09532 2.1828096,0.23579 4.7426596,0.47581 5.6885396,0.53339 0.94589,0.0576 2.39471,0.22416 3.21961,0.37019 0.82489,0.14604 2.13458,0.32199 2.91041,0.391 2.40391,0.21383 3.34935,0.41563 3.46101,0.73871 0.0591,0.17103 0.12943,1.16026 0.15626,2.19828 l 0.0488,1.8873 -7.87459,0.13016 c -7.7402696,0.12794 -10.6849596,0.341 -16.20896963,1.1728 -1.52796997,0.23008 -3.20415997,0.45658 -3.72485997,0.50334 -0.5207,0.0468 -1.53273,0.2174 -2.24896,0.37921 -0.71622,0.1618 -1.71894,0.34605 -2.22827,0.40944 -1.03809,0.12921 -3.1850304,0.62122 -7.6729104,1.75838 -1.67349,0.42404 -3.2769,0.82069 -3.56313,0.88144 -1.98809,0.42201 -12.84328,4.06601 -14.19578,4.76541 -0.41906,0.2167 -0.76192,0.33748 -0.76192,0.26839 0,-0.0691 -0.68461,0.21087 -1.52136,0.62211 -0.83674,0.41125 -1.79822,0.83278 -2.1366,0.93673 -0.33839,0.10395 -0.55436,0.2499 -0.47993,0.32433 0.0744,0.0744 0.88708,-0.10114 1.80588,-0.39017 3.68557,-1.15936 14.60993,-3.40608 19.00076,-3.90772 0.65484,-0.0748 1.96453,-0.26019 2.91041,-0.41194 0.94589,-0.15176 2.4937,-0.3289 3.43959,-0.39365 0.94588,-0.0648 3.2080704,-0.28458 5.0270804,-0.4885 1.81901,-0.20393 3.96213,-0.38074 4.7625,-0.39292 0.80036,-0.0122 2.70535997,-0.14118 4.2333299,-0.28667 3.6761901,-0.35002 19.8264397,-0.65766 21.7641997,-0.41457 l 1.52358,0.19113 0.80339,1.61926 c 0.81601,1.64467 2.60427,4.71547 2.8865,4.95669 0.0851,0.0728 0.76803,0.9062 1.51756,1.85209 5.53032,6.97907 15.14425,12.87245 27.65258,16.95114 2.14093,0.69811 4.32772,1.33844 4.85952,1.42295 0.53181,0.0845 1.05989,0.21113 1.17351,0.28135 0.36909,0.22811 6.65427,1.38351 10.1827,1.87189 4.87562,0.67484 17.8564,0.67608 20.7698,0.002 1.0914,-0.25253 2.28203,-0.50116 2.64583,-0.55252 0.3638,-0.0514 1.01864,-0.23194 1.45521,-0.40129 0.43656,-0.16936 1.026744,-0.35479 1.311524,-0.41207 0.28477,-0.0573 1.60156,-0.64202 2.92619,-1.29942 1.32463,-0.6574 2.53293,-1.19527 2.6851,-1.19527 0.15218,0 1.46963,0.52173 2.92768,1.15941 2.81689,1.23196 5.15603,1.95333 8.80262,2.71465 1.8505,0.38634 3.48096,0.46427 9.20259,0.43987 6.89423,-0.0294 11.26504,-0.38557 15.80054,-1.28752 1.01864,-0.20258 2.23738,-0.43202 2.70831,-0.50987 0.47093,-0.0779 1.78062,-0.36716 2.91042,-0.6429 10.50903,-2.56484 18.99996,-6.33403 25.86668,-11.48242 4.76882,-3.57546 9.555,-9.3203 11.55329,-13.86738 l 0.87912,-2.00041 8.99734,0.15406 c 9.94234,0.17025 16.74537,0.51722 22.75567,1.16059 2.18281,0.23366 4.56406,0.45811 5.29167,0.49878 1.5069,0.0842 6.38711,0.76276 9.525,1.32433 1.16416,0.20834 2.39728,0.37871 2.74026,0.37859 0.34299,-1.1e-4 1.41455,0.17013 2.38125,0.37831 0.96671,0.20818 2.71015,0.56774 3.87432,0.79902 3.5853,0.71228 6.01192,1.26064 7.77792,1.75763 2.21834,0.62428 1.77539,0.27573 -1.03105,-0.81133 -1.23692,-0.47912 -2.48708,-0.97159 -2.77812,-1.09439 -0.75706,-0.31942 -7.6885,-2.59377 -9.26042,-3.03854 -6.25445,-1.76967 -14.84552,-3.73984 -18.38854,-4.21702 -0.65484,-0.0882 -1.66687,-0.26378 -2.24896,-0.39019 -0.58208,-0.12642 -1.71317,-0.30016 -2.51354,-0.3861 -0.80036,-0.0859 -2.76489,-0.32013 -4.36562,-0.52042 -1.60073,-0.20029 -3.4462,-0.38084 -4.10105,-0.40124 -0.65484,-0.0204 -2.26218,-0.15091 -3.57187,-0.29005 -1.30969,-0.13913 -4.84232,-0.33101 -7.8503,-0.4264 l -5.46905,-0.17343 0.12346,-2.14046 c 0.0679,-1.17725 0.20726,-2.21961 0.30968,-2.31635 0.10241,-0.0967 0.96012,-0.23848 1.906,-0.31499 0.94589,-0.0765 2.55982,-0.26198 3.58653,-0.41217 1.02671,-0.15018 2.75311,-0.33858 3.83646,-0.41866 1.08335,-0.0801 2.86269,-0.25935 3.95409,-0.39838 1.09141,-0.13904 3.175,-0.3167 4.63021,-0.39481 1.45521,-0.0781 4.6699,-0.28708 7.14375,-0.46437 9.85496,-0.70625 33.62471,-0.30994 44.84688,0.74774 2.25557,0.21258 5.05354,0.43914 6.21771,0.50346 1.16416,0.0643 2.9501,0.23435 3.96875,0.37785 1.01864,0.14349 2.74505,0.32997 3.83645,0.4144 4.36766,0.33789 17.26704,2.07498 21.96042,2.9573 1.23693,0.23253 2.54662,0.45145 2.91042,0.48649 0.72087,0.0694 4.0796,0.70225 7.01146,1.32105 1.01864,0.215 2.74505,0.57671 3.83645,0.8038 1.09141,0.22709 2.69875,0.57751 3.57188,0.77871 0.87312,0.20121 2.48047,0.56672 3.57187,0.81225 1.09141,0.24553 2.52016,0.60381 3.175,0.79619 0.65485,0.19237 1.48829,0.40544 1.85209,0.47348 0.3638,0.068 1.61396,0.38763 2.77812,0.71021 1.16417,0.32257 2.89058,0.8002 3.83646,1.06139 0.94589,0.26119 2.31511,0.65472 3.04271,0.8745 0.7276,0.21978 2.09682,0.63338 3.04271,0.91911 3.97659,1.20125 12.39754,4.12342 16.93333,5.87605 0.80037,0.30927 1.75287,0.66062 2.11667,0.7808 0.3638,0.12017 1.13771,0.43554 1.71979,0.70082 l 1.05833,0.48233 -2.77812,0.17149 c -1.52797,0.0943 -4.98078,0.18605 -7.67292,0.20382 -9.32791,0.0616 -33.22458,1.52077 -46.0375,2.81114 -2.11005,0.2125 -4.61036,0.45644 -5.55625,0.54209 -0.94588,0.0856 -2.43417,0.26242 -3.30729,0.39283 -0.87313,0.1304 -2.48047,0.31068 -3.57188,0.4006 -1.0914,0.0899 -3.14445,0.3328 -4.56232,0.53971 -1.41787,0.20691 -3.02521,0.37802 -3.57187,0.38025 -1.6237,0.007 -1.85501,0.36232 -0.68662,1.05584 3.32694,1.9748 10.51127,6.66777 12.92186,8.44087 2.53235,1.86265 6.88004,5.15749 7.01145,5.31354 0.0728,0.0864 1.26339,1.06445 2.64584,2.17344 1.38245,1.10899 2.98566,2.50444 3.5627,3.10099 l 1.04915,1.08464 -1.18145,-0.37517 c -1.2359,-0.39246 -7.86747,-1.94276 -11.50019,-2.68847 -1.16417,-0.23897 -2.89058,-0.60354 -3.83646,-0.81016 -0.94589,-0.20662 -2.07698,-0.41411 -2.51354,-0.46111 -0.80259,-0.0864 -2.37747,-0.35111 -6.49574,-1.09187 -1.24432,-0.22382 -2.85167,-0.46368 -3.57188,-0.53304 -0.7202,-0.0693 -2.55962,-0.2999 -4.08759,-0.51233 -3.46175,-0.48128 -10.14985,-1.10698 -15.875,-1.48518 -5.83216,-0.38527 -20.90749,-0.60669 -22.84791,-0.33558 l -1.54895,0.21641 2.3427,1.04722 c 4.42446,1.9778 10.99704,5.19591 14.47313,7.08641 5.23184,2.84539 5.2207,2.83932 6.84731,3.73345 0.83338,0.45811 1.52396,0.95198 1.53462,1.0975 0.0191,0.26065 -0.72538,0.42519 -5.96028,1.31735 -1.45521,0.24801 -3.71739,0.68385 -5.02708,0.96855 -1.30969,0.28469 -3.21469,0.69806 -4.23333,0.91859 -3.9121,0.84695 -7.47249,1.70805 -9.86936,2.38696 -0.77148,0.21852 -1.65426,0.44576 -1.96174,0.50497 -0.30747,0.0592 -1.16454,0.29182 -1.9046,0.5169 -0.74005,0.22509 -2.0004,0.60102 -2.80076,0.8354 -0.80037,0.23439 -1.93146,0.57652 -2.51354,0.7603 -0.58209,0.18378 -1.77271,0.54376 -2.64584,0.79996 -0.87312,0.25619 -1.96268,0.62594 -2.42123,0.82165 -0.45856,0.19571 -0.95093,0.35583 -1.09416,0.35583 -0.47571,0 -14.10299,5.08125 -14.97805,5.58491 -0.27597,0.15885 -1.22847,0.56345 -2.11666,0.89913 -3.10514,1.17352 -11.96122,5.40967 -16.70527,7.99067 -5.2,2.82906 -5.95621,3.25608 -7.47049,4.21842 -0.76681,0.48732 -1.452,0.88604 -1.52263,0.88604 -0.27678,0 -8.86559,5.72848 -11.23838,7.49567 -6.90136,5.13993 -15.69771,13.21533 -19.06478,17.50222 l -1.44043,1.83393 -0.0772,-3.2956 c -0.0425,-1.81258 0.0373,-5.0785 0.17734,-7.2576 0.14,-2.1791 0.19239,-4.06256 0.11643,-4.18547 -0.076,-0.12291 -1.41407,1.12421 -2.97359,2.77138 -7.76828,8.20489 -12.17061,13.89427 -17.50012,22.61639 -1.30789,2.14044 -1.2766,2.14806 -2.34844,-0.57155 -2.53914,-6.44264 -7.83358,-15.92383 -12.00332,-21.49534 l -1.03804,-1.38702 -0.82966,1.1029 c -3.50783,4.66312 -6.910104,10.06589 -9.299794,14.768 -0.93189,1.83365 -3.03922,6.66542 -3.03922,6.96845 0,0.12519 -0.16793,0.6028 -0.37316,1.06136 -0.20524,0.45855 -0.42063,1.00364 -0.47864,1.21131 -0.0655,0.2344 -0.33956,-0.0164 -0.72279,-0.66146 z M 102.4211,284.44183 c -3.978424,-0.39743 -4.500604,-0.47385 -6.879164,-1.00672 -2.91119,-0.6522 -6.66827,-1.88243 -8.53152,-2.79359 -0.76327,-0.37325 -1.44244,-0.67864 -1.50926,-0.67864 -0.37845,0 -4.91937,-2.81405 -6.43378,-3.98708 -4.56349,-3.53477 -8.14423,-8.56785 -9.74866,-13.70268 -1.90918,-6.11016 -1.83797,-14.5647 0.17413,-20.67482 1.3312,-4.04243 4.46304,-8.84139 7.58728,-11.6261 2.85115,-2.54128 6.77548,-4.91006 10.77836,-6.50593 1.90958,-0.76132 2.06495,-0.80856 5.56678,-1.69258 9.593544,-2.42184 21.064984,-2.11742 29.368744,0.77936 0.87312,0.30459 1.82229,0.62752 2.10925,0.71762 1.00983,0.31706 5.57893,2.65441 6.88658,3.52288 5.03519,3.34407 9.19984,8.21072 11.18348,13.06858 2.77477,6.7953 3.17973,16.22678 0.99861,23.25774 -2.18076,7.02981 -7.67335,12.89036 -15.70067,16.75251 -2.72494,1.31103 -8.33116,3.23925 -9.97517,3.43087 -0.58208,0.0678 -1.47505,0.24269 -1.98437,0.38853 -1.18872,0.34038 -8.41756,1.03684 -10.31875,0.99416 -0.80037,-0.018 -2.40771,-0.12781 -3.57187,-0.24411 z m 9.3927,-32.54102 c 2.11005,-0.15014 5.4438,-0.37633 7.40833,-0.50265 1.96454,-0.12631 4.0779,-0.41314 4.69636,-0.6374 0.61846,-0.22425 1.12448,-0.34651 1.12448,-0.27167 0,0.34792 3.2808,-1.66359 3.89234,-2.38646 0.98021,-1.15864 1.92259,-3.33355 2.10245,-4.85222 0.29107,-2.45758 -1.12024,-5.72711 -3.1318,-7.25533 -2.90556,-2.20742 -6.54297,-2.67589 -20.85466,-2.68595 -10.379784,-0.007 -13.233704,0.15664 -17.825314,1.02391 -3.38239,0.63888 -6.4188,4.41446 -6.71492,8.34959 -0.11783,1.56591 -0.044,1.92878 0.7163,3.52191 0.69098,1.44781 1.14189,1.99272 2.43938,2.94787 1.99988,1.47223 3.49889,1.92611 7.49394,2.26906 9.167384,0.78697 12.959914,0.88443 18.653114,0.47934 z m -259.55625,20.96245 c 0,-0.41402 1.01648,-5.96415 1.72831,-9.43684 0.2088,-1.01864 0.44635,-2.2688 0.52789,-2.77812 0.0815,-0.50932 0.25687,-1.34276 0.38963,-1.85208 0.13277,-0.50933 0.30595,-1.28323 0.38485,-1.7198 0.40655,-2.24943 1.32229,-6.34962 2.17546,-9.74051 0.21289,-0.84613 0.43422,-1.79863 0.49185,-2.11666 0.14771,-0.81512 0.62027,-2.72733 1.05831,-4.28241 1.36839,-4.85798 2.36101,-8.28769 3.06301,-10.58333 1.04683,-3.42333 3.61782,-11.22293 3.92466,-11.90625 0.13068,-0.29104 0.47573,-1.24354 0.76675,-2.11667 0.29103,-0.87312 0.76201,-2.18281 1.04663,-2.91041 0.28461,-0.72761 0.8938,-2.33495 1.35374,-3.57188 0.45994,-1.23693 1.06982,-2.75368 1.35529,-3.37055 0.28547,-0.61688 0.51904,-1.17944 0.51904,-1.25014 0,-0.0707 0.72506,-1.82817 1.61124,-3.90549 3.35191,-7.85729 9.53736,-20.28405 13.04508,-26.208 0.67027,-1.13198 1.21868,-2.09894 1.21868,-2.14879 0,-0.49015 8.92291,-14.28642 11.84721,-18.31772 0.54179,-0.74689 1.394541,-1.93752 1.895001,-2.64583 1.2644,-1.78958 4.670445,-6.0747 5.965815,-7.50556 1.92613,-2.1276 1.94571,-2.17248 0.76308,-1.74932 -0.56333,0.20157 -1.32188,0.48602 -1.68568,0.63211 -0.36381,0.1461 -1.19724,0.47808 -1.85209,0.73774 -0.65484,0.25965 -1.819235,0.74891 -2.587535,1.08724 -0.76829,0.33833 -1.460281,0.61515 -1.537741,0.61515 -0.84681,0 -13.71965,6.4858 -19.07041,9.60836 -1.91632,1.11832 -3.55618,2.0333 -3.64414,2.0333 -0.17432,0 1.13679,-2.49836 2.84643,-5.42396 1.13043,-1.93442 5.88042,-9.17897 7.3815,-11.25803 1.24898,-1.7299 4.48101,-5.8927 4.8172,-6.20447 0.15693,-0.14552 1.17159,-1.32668 2.25481,-2.62481 1.08321,-1.29813 4.05978,-4.45917 6.614581,-7.02453 6.669405,-6.69697 12.437925,-11.50668 20.055515,-16.72198 1.34521,-0.92098 2.44654,-1.74318 2.4474,-1.82712 8.6e-4,-0.0839 -0.38539,-0.10821 -0.85834,-0.0539 -1.54585,0.17738 -6.36476,0.89989 -8.79739,1.319 -1.30969,0.22564 -2.69739,0.44196 -3.08377,0.48071 -1.58685,0.15913 -9.289205,2.12946 -12.658946,3.23827 -4.12375,1.35691 -9.82017,3.49611 -11.17408,4.19625 -0.4027,0.20824 -0.73217,0.2975 -0.73217,0.19836 0,-0.18556 1.05532,-1.62994 1.64964,-2.25782 0.1841,-0.1945 0.86255,-1.06801 1.50766,-1.94114 0.64511,-0.87312 1.24598,-1.64703 1.33526,-1.71979 0.0893,-0.0728 0.75209,-0.90614 1.4729,-1.85196 0.72082,-0.94582 1.48917,-1.90479 1.70745,-2.13105 0.21829,-0.22626 1.57881,-1.71459 3.0234,-3.30741 4.142771,-4.567886 10.819216,-11.263915 14.571406,-14.614171 1.89177,-1.689125 3.79677,-3.395517 4.23333,-3.791982 3.16456,-2.873904 10.5468,-8.517761 15.70913,-12.009931 l 2.67248,-1.807848 -0.69868,-0.946469 c -0.38428,-0.520558 -1.0208,-1.303656 -1.41449,-1.740219 -1.97274,-2.187543 -7.88913,-10.536836 -10.68671,-15.08125 -1.49359,-2.426196 -6.85302,-12.832291 -6.60899,-12.832291 0.0891,0 -0.0295,-0.292375 -0.26364,-0.649722 -0.48312,-0.737341 -3.84369,-9.526815 -4.00034,-10.462779 -0.0122,-0.07276 -0.21256,-0.727604 -0.44529,-1.455208 -1.11922,-3.499035 -2.76182,-10.127455 -3.01394,-12.16217 -0.0727,-0.586848 -0.24762,-1.49886 -0.38867,-2.026694 -0.14106,-0.527833 -0.3184,-1.62899 -0.39409,-2.447016 -0.0757,-0.8180264 -0.2568,-2.1125694 -0.40248,-2.8767614 -0.3586,-1.88117 -0.57118,-6.575592 -0.2666,-5.887358 0.1288,0.291042 0.49284,1.422136 0.80897,2.513542 3.0386,10.4903504 8.61875,22.4202264 14.74001,31.5128654 2.23944,3.32652 3.85171,5.64252 4.03302,5.793384 0.0874,0.07276 0.56757,0.668073 1.06696,1.322917 4.32334,5.669146 13.99828,15.8771 18.74848,19.781369 1.25966,1.035335 2.52841,2.102003 2.81945,2.370375 1.26035,1.162173 5.73495,4.506977 9.3556,6.993402 2.16855,1.489209 1.8787,1.53661 3.65406,-0.597582 7.62019,-9.160372 22.65486,-24.14035 33.2435204,-33.122577 5.09245,-4.319865 13.01536,-10.563564 17.9082796,-14.112735 0.94589,-0.686115 2.13606,-1.554322 2.64483,-1.929347 2.51613,-1.854706 11.61915,-8.007065 16.27288,-10.998176 0.7276,-0.467656 2.15635,-1.3851404 3.175,-2.0388524 1.01865,-0.653712 2.53669,-1.573013 3.37344,-2.04289 0.83674,-0.469877 1.52135,-0.90495 1.52135,-0.966828 0,-0.208294 -3.9043,-6.05197499 -5.06647,-7.583127 -0.63318,-0.834218 -1.56796,-2.075614 -2.07728,-2.758657 -0.50932,-0.683043 -1.04777,-1.369719 -1.19654,-1.525948 -0.14878,-0.156268 -1.04175,-1.234799 -1.98438,-2.396775 -4.21934,-5.2011736 -14.29621,-15.2698866 -20.1024096,-20.0861386 -1.23693,-1.026033 -2.40449,-2.015411 -2.59459,-2.198618 -0.1901,-0.183206 -1.08306,-0.899027 -1.98437,-1.590712 -0.9013101,-0.691686 -1.8768801,-1.459728 -2.16792,-1.70676 -3.24812,-2.756964 -16.8681504,-11.902089 -22.0927004,-14.834077 -0.50933,-0.285829 -1.58089,-0.912427 -2.38125,-1.392441 -4.8598,-2.914628 -14.75841,-7.799603 -21.69584,-10.706908 -5.06502,-2.122628 -5.78183,-2.404629 -8.20208,-3.226811 -1.23693,-0.420195 -2.66568,-0.929295 -3.175,-1.131332 -0.50932,-0.202038 -2.1762,-0.736467 -3.70417,-1.187621 -1.52797,-0.451153 -3.37344,-1.002104 -4.10104,-1.224335 -0.7276,-0.22223 -1.60724,-0.4549 -1.95474,-0.517043 -0.3475,-0.06214 -1.24047,-0.283198 -1.98438,-0.491232 -0.7439,-0.208034 -2.48364,-0.578001 -3.86609,-0.82215 -1.38245,-0.244149 -3.10885,-0.572817 -3.83646,-0.730373 -0.7276,-0.157556 -3.77454,-0.338773 -6.77098,-0.402704 -4.41298,-0.09415 -5.76171,-0.03588 -7.09897,0.306706 -0.908,0.232619 -1.82239,0.422944 -2.03198,0.422944 -0.69119,0 -3.73629,1.628288 -5.00364,2.675559 -0.68461,0.565734 -1.353275,1.028607 -1.485905,1.028607 -0.34773,0 0.688585,-1.945347 2.223745,-4.174381 1.79676,-2.608866 4.29197,-4.622956 7.46773,-6.027817 6.13633,-2.714527 15.636,-2.875887 28.575,-0.485367 1.16417,0.215083 2.41433,0.443807 2.77813,0.508275 1.8578,0.329212 7.56698,1.787351 11.90625,3.040881 5.27173,1.5229 17.3978,5.944255 18.77378,6.845213 0.3574,0.234018 0.65506,0.381688 0.66146,0.328154 0.006,-0.05353 0.42835,0.07902 0.93768,0.294557 0.50932,0.215539 1.69994,0.717099 2.64583,1.114577 0.94588,0.397478 4.93448,2.311734 8.86354,4.253903 17.4398104,8.620645 33.00814,18.604906 49.3962,31.678698 1.41072,1.125423 2.6228,2.046223 2.69351,2.046223 0.54964,0 -2.49502,-6.631081 -4.77492,-10.399491 -1.33194,-2.201545 -4.68332,-7.000336 -5.11745,-7.327592 -0.46542,-0.35085 -3.43373,-3.967603 -3.24983,-3.959772 0.11595,0.0049 0.68707,0.239023 1.26916,0.520189 0.58208,0.281166 1.15019,0.515251 1.26246,0.520189 0.11228,0.0049 1.3029,0.432301 2.64584,0.949696 1.34293,0.517395 4.1681,1.596867 6.27816,2.398827 2.11005,0.801959 4.19364,1.622029 4.6302,1.822378 0.43657,0.200349 1.68672,0.734569 2.77813,1.187157 1.0914,0.452588 4.41034,2.071583 7.37542,3.597767 2.96507,1.526184 5.43165,2.734276 5.48128,2.684649 0.0496,-0.04963 -0.76049,-1.215375 -1.80026,-2.590551 -6.23487,-8.246093 -13.33954,-15.368068 -21.63977,-21.692486 -2.5306,-1.928206 -8.41148,-5.856263 -10.51692,-7.024646 -1.58673,-0.880529 -1.77554,-1.203922 -0.52944,-0.906806 1.32423,0.315745 3.03771,0.699027 5.35781,1.198474 1.16417,0.250608 2.65245,0.617988 3.3073,0.816399 0.65484,0.198411 1.42875,0.402705 1.71979,0.453988 0.29104,0.05128 1.24354,0.296697 2.11666,0.545366 0.87313,0.248669 2.24235,0.63804 3.04271,0.865269 1.95553,0.555188 10.77841,3.492962 11.77396,3.920401 0.43656,0.187437 2.34156,0.964017 4.23333,1.725732 1.89177,0.761716 4.15396,1.69722 5.02709,2.078899 1.43693,0.628143 13.99701,6.874668 14.94896,7.434591 0.21828,0.12839 1.28984,0.758574 2.38125,1.400408 1.73233,1.01875 4.59823,2.736877 6.20693,3.721099 1.0135,0.620071 3.20346,2.049474 4.3764,2.856512 3.54267,2.437521 8.29217,5.824716 9.79591,6.986138 4.441464,3.430403 5.232974,4.067512 6.802114,5.475204 0.92388,0.82882 1.91257,1.580832 2.1971,1.671137 0.37332,0.118487 0.90427,-0.169465 1.90745,-1.034462 4.58265,-3.951438 11.4584,-9.106524 17.39742,-13.043692 2.25557,-1.495292 4.24484,-2.839408 4.4206,-2.986925 0.17576,-0.147517 0.38542,-0.268212 0.46592,-0.268212 0.0805,0 1.06778,-0.574417 2.19398,-1.276481 8.37478,-5.2208 22.6551,-12.173574 30.88721,-15.0383 0.58208,-0.202562 1.29645,-0.471539 1.5875,-0.597728 2.57035,-1.114443 14.75272,-4.711915 19.31458,-5.703624 1.16417,-0.25308 2.97987,-0.676275 4.0349,-0.940433 1.05502,-0.264158 1.91822,-0.39158 1.91822,-0.283159 0,0.10842 -1.04179,0.775469 -2.3151,1.482332 -11.28147,6.262779 -22.08756,15.771131 -30.21995,26.590726 -0.92972,1.236927 -2.03834,2.703334 -2.46361,3.258682 -0.42526,0.555349 -0.73149,1.049711 -0.6805,1.098583 0.051,0.04887 0.4715,-0.107848 0.93448,-0.348266 4.2262,-2.194626 12.99781,-6.496862 14.37177,-7.048959 0.94588,-0.380085 2.07698,-0.852645 2.51354,-1.050134 0.43656,-0.197488 1.29977,-0.548633 1.91823,-0.780321 2.82154,-1.057004 3.43213,-1.293631 4.29948,-1.666208 0.50932,-0.218786 1.10463,-0.440193 1.32291,-0.492018 0.21829,-0.05182 1.82192,-0.575174 3.56363,-1.163 1.74172,-0.587827 3.26827,-1.068775 3.39235,-1.068775 0.12408,0 -1.02972,1.339453 -2.56401,2.976562 -1.53428,1.637109 -3.66135,4.201359 -4.72681,5.698333 -2.64587,3.71742 -6.97521,12.413665 -6.44432,12.944551 0.0834,0.08343 0.82528,-0.430805 1.64856,-1.142735 2.39478,-2.070884 11.22906,-8.96976 14.1935,-11.084003 12.33232,-8.795427 22.41746,-14.863659 35.4092,-21.305717 3.26207,-1.61752 6.22869,-3.09866 6.59249,-3.291421 0.3638,-0.19276 2.98318,-1.320728 5.82083,-2.506594 2.83766,-1.185866 5.3975,-2.267645 5.68854,-2.403954 0.75304,-0.352683 4.63222,-1.766641 7.27604,-2.652113 1.23693,-0.414272 2.77995,-0.946043 3.42893,-1.181715 0.64899,-0.235671 1.78008,-0.594995 2.51355,-0.798498 0.73346,-0.203504 2.40513,-0.672699 3.71482,-1.042657 4.78646,-1.352068 7.81361,-2.115343 9.525,-2.401661 0.43656,-0.07304 1.62718,-0.296163 2.64583,-0.495833 8.5512,-1.676171 15.27146,-2.098867 21.43125,-1.348004 5.90768,0.720133 8.5696,1.966008 12.44793,5.826084 1.53731,1.530078 3.01568,3.285703 3.50573,4.16318 0.46606,0.83454 0.84738,1.577202 0.84738,1.650359 0,0.07316 -0.6559,-0.286559 -1.45755,-0.79937 -2.01688,-1.290184 -4.42173,-2.352957 -6.61224,-2.922141 -1.48579,-0.38607 -2.82014,-0.477175 -6.74688,-0.460657 -2.69213,0.01132 -5.66869,0.166866 -6.61458,0.345648 -0.94588,0.178782 -2.37463,0.425567 -3.175,0.548411 -1.89007,0.290096 -5.07407,0.963549 -6.74687,1.427041 -2.26275,0.62695 -3.63668,0.985184 -4.1791,1.089644 -0.28699,0.05527 -1.01191,0.271735 -1.61094,0.481034 -0.59902,0.2093 -1.86304,0.620293 -2.80892,0.913318 -0.94589,0.293025 -2.07698,0.679533 -2.51354,0.858907 -0.43657,0.179374 -0.97235,0.362297 -1.19063,0.406495 -0.60037,0.121566 -8.40977,3.28593 -12.30312,4.985223 -3.86387,1.68642 -15.22846,7.446518 -17.85938,9.051956 -0.94588,0.577197 -1.91059,1.120546 -2.14379,1.207443 -0.2332,0.0869 -1.27621,0.70425 -2.31781,1.371897 -1.0416,0.667647 -1.95695,1.213903 -2.03411,1.213903 -0.0772,0 -0.4629,0.224898 -0.85719,0.499773 -0.39429,0.274875 -2.80048,1.872264 -5.3471,3.549753 -2.54661,1.677489 -5.10526,3.387357 -5.68588,3.799706 -3.0824,2.18909 -12.63748,9.58845 -13.09954,10.144159 -0.0728,0.08751 -1.44197,1.28306 -3.0427,2.656783 -3.79313,3.255209 -13.39716,12.851064 -16.40545,16.3914916 -1.29831,1.527969 -2.4278,2.837656 -2.50998,2.910417 -0.23067,0.204233 -3.66697,4.662307 -5.3025,6.87916601 -1.82204,2.46967699 -4.05191,5.82880099 -3.92387,5.91100899 1.79248,1.15083 3.98681,2.543953 5.25534,3.336477 0.86653,0.5413734 14.13705,9.4395824 14.81646,9.9348044 0.3993,0.291042 1.48542,1.056851 2.41362,1.701798 0.92819,0.644947 2.10435,1.488988 2.61367,1.875648 0.50932,0.386659 2.11666,1.592616 3.57187,2.679904 4.70841,3.517982 5.16573,3.870815 8.57332,6.614517 0.78627,0.633078 2.46521,1.984488 3.731,3.003134 3.04824,2.453083 6.88825,5.734565 8.85735,7.569046 0.87588,0.815996 3.37844,3.092253 5.56125,5.05835 6.43473,5.79587 14.69966,14.398425 21.61893,22.502068 1.26739,1.484328 2.42949,2.740495 2.58245,2.791481 0.45097,0.150324 6.35806,-4.098352 12.41208,-8.927396 3.46585,-2.764567 12.07619,-10.98689 15.26151,-14.573758 3.6446,-4.104052 12.0219,-15.511389 12.0219,-16.370169 0,-0.139965 0.0946,-0.29417 0.21016,-0.342677 0.43549,-0.18276 3.61156,-5.827939 6.00399,-10.671529 3.36071,-6.803947 6.62123,-15.4093824 7.44343,-19.6453114 0.0918,-0.472943 0.25193,-0.859896 0.35585,-0.859896 0.24773,0 0.11652,2.957716 -0.23813,5.367872 -0.15443,1.049493 -0.34279,2.503482 -0.41857,3.2310864 -0.31533,3.027288 -1.83517,10.24173 -2.98202,14.155207 -0.23455,0.800365 -0.45711,1.633802 -0.49457,1.852084 -0.0877,0.510751 -1.7229,5.406368 -2.60712,7.805209 -1.75161,4.752059 -5.04897,11.771058 -7.46674,15.894278 -0.42043,0.717001 -0.84731,1.482232 -0.94861,1.700513 -0.1013,0.218281 -0.45126,0.820523 -0.77769,1.338314 -0.32644,0.517791 -0.94903,1.528692 -1.38355,2.246445 -2.0002,3.303985 -5.66795,8.346956 -8.79328,12.09031 l -2.43956,2.921979 3.63019,2.500711 c 1.9966,1.375391 4.29877,2.995352 5.11594,3.599913 2.40137,1.776592 5.91175,4.493907 6.05487,4.686944 0.0728,0.09814 1.20385,1.046042 2.51354,2.106446 3.20053,2.591346 4.96301,4.260482 12.55036,11.885694 5.70582,5.734282 8.39334,8.721142 14.39596,15.999362 1.98784,2.41027 3.43873,4.3864 3.31292,4.51221 -0.0544,0.0544 -1.58668,-0.49858 -3.4051,-1.22881 -3.50402,-1.40711 -7.45314,-2.81996 -8.33331,-2.98135 -0.29104,-0.0534 -0.8309,-0.2146 -1.19968,-0.3583 -0.79281,-0.30893 -7.47607,-1.95073 -10.30969,-2.53266 -4.67104,-0.95928 -13.3924,-2.208 -13.6465,-1.95391 -0.0591,0.0591 0.87377,0.7751 2.07313,1.59101 6.75027,4.59213 11.80975,8.88666 19.39349,16.46138 7.77762,7.76836 11.32138,11.9247 16.69952,19.58619 1.96539,2.79982 6.14794,9.63165 7.33723,11.98472 l 0.70829,1.4014 -0.84531,-0.43713 c -0.46491,-0.24042 -1.66158,-0.96034 -2.65924,-1.59983 -0.99767,-0.63949 -1.86702,-1.1627 -1.93188,-1.1627 -0.0649,0 -0.74826,-0.37356 -1.51865,-0.83013 -3.81099,-2.25856 -16.52373,-8.25714 -19.26008,-9.08797 -0.3638,-0.11046 -0.78052,-0.29517 -0.92604,-0.41046 -0.14552,-0.1153 -1.03849,-0.50532 -1.98438,-0.86672 -0.94588,-0.3614 -1.94882,-0.74942 -2.22875,-0.86226 -0.48931,-0.19725 -0.48868,-0.1849 0.0163,0.32013 0.79196,0.79196 5.51683,6.95252 9.20499,12.00199 3.11338,4.26253 8.53577,12.44219 10.87452,16.40416 0.55835,0.94589 1.45137,2.43417 1.98448,3.3073 1.48036,2.4245 5.54435,9.91049 7.46913,13.75833 2.58468,5.16706 7.68604,16.60528 8.90916,19.97604 0.18481,0.50932 0.43773,1.16417 0.56205,1.45521 0.66929,1.56697 1.17177,2.85816 1.85335,4.7625 0.41667,1.16417 1.10286,3.06917 1.52487,4.23333 0.94997,2.6206 2.98338,8.7187 3.61725,10.84792 0.25993,0.87312 0.58514,1.90482 0.72269,2.29265 0.13755,0.38784 0.34678,1.10221 0.46494,1.5875 0.11817,0.48529 0.53501,1.95391 0.92632,3.2636 0.39131,1.30969 0.75715,2.60705 0.81296,2.88303 0.0558,0.27598 0.2275,0.88361 0.38152,1.3503 0.15403,0.46669 0.32362,1.07479 0.37688,1.35134 0.0532,0.27654 0.24085,1.03766 0.41687,1.69137 0.17603,0.65371 0.35879,1.3897 0.40613,1.63554 0.0473,0.24584 0.28019,1.1988 0.51744,2.1177 1.25173,4.84811 1.99556,7.99249 2.12817,8.99629 0.0516,0.39104 0.21437,1.16494 0.36158,1.71979 0.14721,0.55484 0.3332,1.42552 0.41331,1.93485 0.0801,0.50932 0.31367,1.69994 0.51903,2.64583 0.20536,0.94588 0.5675,2.79135 0.80476,4.10104 0.23725,1.30969 0.56158,3.06881 0.72073,3.90916 0.15915,0.84035 0.23024,1.58703 0.15798,1.65929 -0.11368,0.11368 -1.2739,-1.39385 -4.48918,-5.83303 -3.0265,-4.17853 -9.4796,-12.5168 -11.15969,-14.41979 -0.32119,-0.36381 -1.76612,-2.03068 -3.21097,-3.70417 -6.22055,-7.20493 -16.96859,-17.89108 -23.81408,-23.67696 -1.89177,-1.59895 -3.55864,-3.0387 -3.70416,-3.19944 -0.2928,-0.32342 -4.96415,-4.00961 -5.85472,-4.61999 -1.6257,-1.11422 -4.63069,-3.48244 -4.5373,-3.57583 0.0592,-0.0592 0.75469,0.14025 1.54562,0.44313 0.79094,0.30288 1.73572,0.6143 2.09952,0.69206 0.3638,0.0778 0.78052,0.22946 0.92604,0.33712 0.21906,0.16207 3.27257,1.21535 13.75834,4.7458 1.9881,0.66937 5.64248,1.9513 6.48229,2.27394 0.50932,0.19567 1.21578,0.43715 1.56991,0.53663 0.61988,0.17412 0.61057,0.13771 -0.24975,-0.97686 -0.49149,-0.63675 -1.43608,-1.75888 -2.09908,-2.49362 -0.663,-0.73475 -2.15796,-2.4604 -3.32212,-3.83479 -2.4872,-2.93632 -13.29046,-13.80029 -16.56436,-16.65744 -4.33625,-3.78426 -5.64273,-4.90077 -7.12914,-6.09249 -0.82163,-0.65874 -1.70703,-1.41086 -1.96754,-1.67138 -0.26052,-0.26051 -1.52967,-1.31805 -2.82034,-2.35007 -1.29067,-1.03203 -2.30096,-1.92212 -2.2451,-1.97799 0.1604,-0.16039 7.69075,1.74702 10.61814,2.68954 0.72761,0.23426 1.8587,0.58827 2.51354,0.78669 5.21956,1.5815 6.81654,2.08152 7.27605,2.27815 1.10638,0.47345 4.47453,1.55434 4.56415,1.46471 0.35416,-0.35415 -11.10207,-11.32884 -16.86728,-16.1583 -1.38245,-1.15807 -2.8112,-2.36505 -3.175,-2.68219 -2.46111,-2.14541 -5.23007,-4.35585 -10.13716,-8.0924 -1.88017,-1.43167 -2.87991,-2.15624 -5.97943,-4.33365 -5.95998,-4.18689 -7.38894,-5.16889 -8.48966,-5.8342 -0.65484,-0.39581 -1.89403,-1.23034 -2.75375,-1.8545 -0.85972,-0.62416 -1.69316,-1.18172 -1.85208,-1.23903 -0.15893,-0.0573 -0.21985,-0.17968 -0.13539,-0.27194 0.0845,-0.0923 0.67977,7.3e-4 1.32292,0.20663 0.64314,0.2059 1.82419,0.56002 2.62455,0.78693 3.71338,1.05276 9.63865,2.92451 14.31803,4.52297 2.82087,0.9636 5.30744,1.7989 5.52572,1.85621 0.21828,0.0573 1.23031,0.41383 2.24896,0.79226 2.56657,0.95347 3.4458,1.21976 3.15715,0.95618 -1.30057,-1.1876 -5.61081,-4.59455 -8.98169,-7.09941 -2.0769,-1.54332 -10.96793,-7.36669 -14.1515,-9.26883 -7.31607,-4.37124 -19.22649,-10.3775 -26.45834,-13.34256 -1.38244,-0.5668 -2.69213,-1.12743 -2.91041,-1.24585 -0.88561,-0.48041 -7.92867,-3.17074 -11.64167,-4.44691 -2.04588,-0.70318 -4.09193,-1.50188 -4.3163,-1.68493 -0.66529,-0.54276 13.6609,-2.29939 23.89547,-2.92998 3.61392,-0.22267 5.11493,-0.39682 4.49791,-0.52187 -4.1974,-0.85064 -9.27548,-1.77113 -10.71562,-1.94238 -0.58208,-0.0692 -2.18943,-0.30319 -3.57188,-0.51995 -6.39302,-1.00238 -22.88662,-2.62836 -29.89791,-2.94742 -1.81901,-0.0828 -3.40581,-0.24754 -3.52621,-0.36613 -0.26255,-0.25859 3.40159,-1.6014 6.17204,-2.26189 1.09141,-0.2602 2.81781,-0.68321 3.83646,-0.94003 6.20943,-1.56553 11.67358,-2.12267 21.00914,-2.14215 4.52503,-0.009 8.22732,-0.0511 8.22732,-0.0925 0,-0.0916 -3.51495,-2.22088 -4.62586,-2.80223 -0.43896,-0.22971 -2.00935,-1.09291 -3.48976,-1.91823 -1.48041,-0.82531 -2.7491,-1.50057 -2.81932,-1.50057 -0.0702,0 -1.35929,-0.5831 -2.86459,-1.29577 -6.65266,-3.14963 -13.63455,-5.30318 -21.25776,-6.556925 -4.08836,-0.672388 -16.48235,-0.663957 -20.37292,0.01386 -3.73408,0.650552 -7.44703,1.436982 -8.99583,1.905385 -0.72761,0.220049 -1.97776,0.59124 -2.77813,0.824871 -2.24083,0.654109 -7.13925,2.452759 -8.46667,3.108879 -0.65484,0.32367 -1.28073,0.60676 -1.39085,0.62909 -0.11013,0.0223 -0.80658,0.34785 -1.54767,0.72339 -0.74108,0.37554 -1.40815,0.62207 -1.48237,0.54785 -0.0742,-0.0742 0.23528,-0.68351 0.68777,-1.35397 0.45249,-0.67046 0.82271,-1.26844 0.82271,-1.32884 0,-0.23103 5.74464,-8.989334 8.67659,-13.228362 1.86207,-2.692203 5.79122,-7.542328 8.26091,-10.197245 1.29318,-1.390167 2.60658,-2.852194 2.91867,-3.248951 l 0.56743,-0.721375 -0.88524,0.382607 c -0.48688,0.210433 -1.31995,0.571133 -1.85126,0.801554 -0.53132,0.230421 -1.02633,0.418948 -1.10003,0.418948 -0.53115,0 -9.55016,4.459445 -12.61535,6.237659 -1.2353,0.716631 -2.45494,1.422028 -2.71031,1.567549 -2.56894,1.463854 -11.11294,7.015478 -12.90308,8.384015 -0.3638,0.278122 -1.73302,1.280705 -3.04271,2.227961 -1.30968,0.947256 -2.55984,1.865803 -2.77812,2.041215 -0.21828,0.175412 -0.8136,0.609163 -1.32292,0.963892 -0.50932,0.354728 -2.10038,1.590189 -3.53568,2.745473 l -2.60964,2.1005 0.19038,-1.42632 c 0.19961,-1.495473 1.70177,-8.107981 2.38262,-10.488299 0.21853,-0.763984 0.59101,-2.073671 0.82775,-2.910416 1.22491,-4.329444 5.23049,-15.660359 6.18993,-17.509955 0.11856,-0.228561 0.83666,-1.903847 1.59577,-3.722857 3.991,-9.563289 9.66123,-20.513315 14.62569,-28.24427 0.67749,-1.055026 1.12639,-1.91823 0.99756,-1.91823 -0.12883,0 -0.81265,0.512209 -1.51962,1.138242 -0.70696,0.626033 -1.99976,1.711532 -2.87288,2.41222 -1.97711,1.58664 -4.10398,3.549756 -8.30086,7.661763 -6.06935,5.946605 -10.26183,10.594195 -16.2517,18.015917 -1.56985,1.945106 -5.82363,7.671396 -6.57982,8.857512 -0.41245,0.646954 -0.75556,1.063672 -0.76246,0.926042 -0.20533,-4.094387 0.38102,-18.003539 0.95862,-22.739821 0.21295,-1.74625 0.4513,-3.770312 0.52966,-4.497916 0.0784,-0.727605 0.3165,-2.084557 0.5292,-3.015449 0.33604,-1.470662 0.34137,-2.224343 0.0131,-1.857294 -0.0542,0.06063 -1.3831,2.253368 -2.95307,4.872743 -3.21707,5.367433 -7.09912,12.789778 -9.0641,17.330207 -2.43053,5.616168 -3.43549,8.063001 -3.74909,9.128125 -0.17139,0.582084 -0.41827,1.296459 -0.54863,1.5875 -0.27775,0.620114 -1.32945,3.78878 -1.44897,4.365625 -0.0452,0.218281 -0.1978,0.695036 -0.33904,1.059455 -0.14125,0.364419 -0.51697,1.733638 -0.83495,3.042708 -2.4037,9.895812 -2.2662,7.430696 -2.23579,40.083258 0.0284,30.49886 0.0258,30.42674 1.31562,36.3802 1.02868,4.74809 2.78875,10.24431 4.51428,14.09691 0.34411,0.76829 0.62565,1.45349 0.62565,1.52265 0,0.0692 0.28438,0.71522 0.63194,1.43569 l 0.63194,1.30995 -2.55016,3.38966 c -2.73824,3.63964 -6.39137,8.49238 -8.10642,10.76841 -0.58209,0.77247 -1.83224,2.39014 -2.77813,3.59481 -0.94588,1.20467 -2.32882,2.97686 -3.0732,3.9382 -2.31732,2.99277 -2.16463,2.9519 -3.82302,1.02314 -0.78337,-0.91108 -1.49532,-1.71603 -1.58212,-1.78879 -0.0868,-0.0728 -1.10194,-1.30216 -2.25588,-2.732 -7.884454,-9.76961 -13.827134,-17.79963 -13.763304,-18.59762 0.0219,-0.27418 0.35006,-1.09382 0.72917,-1.82142 0.3791,-0.72761 1.00795,-2.09683 1.39742,-3.04271 0.38948,-0.94589 0.86524,-2.07698 1.05726,-2.51354 0.29854,-0.67878 0.99029,-2.62972 1.07886,-3.04271 0.10877,-0.50722 0.77994,-2.68497 1.07821,-3.49849 0.43862,-1.19634 1.00991,-3.82046 1.71521,-7.87859 0.4926,-2.83422 0.53917,-4.63811 0.67968,-26.32605 0.18198,-28.08752 -0.055,-35.221299 -1.38008,-41.539579 -0.21363,-1.018646 -0.43336,-2.090673 -0.48828,-2.382282 -0.0549,-0.291608 -0.24389,-1.065051 -0.41992,-1.71876 -0.17602,-0.653709 -0.36362,-1.414827 -0.41688,-1.691373 -0.0533,-0.276546 -0.22285,-0.884647 -0.37687,-1.351335 -0.15402,-0.466689 -0.3281,-1.074326 -0.38684,-1.350304 -0.20136,-0.945994 -2.74476,-8.438548 -3.44857,-10.159071 -0.38694,-0.945885 -0.73634,-1.838854 -0.77646,-1.984375 -0.0401,-0.145521 -0.26901,-0.707244 -0.50866,-1.248273 -0.23964,-0.541029 -0.43572,-1.056691 -0.43572,-1.145915 0,-0.08922 -0.41409,-0.987335 -0.92021,-1.995802 -0.50611,-1.008466 -0.92223,-1.892086 -0.92471,-1.963601 -0.005,-0.14303 -3.53273,-7.213933 -4.56332,-9.146522 -1.31037,-2.45724 -6.26356,-10.561345 -6.45504,-10.561345 -0.14048,0 0.0973,2.091788 0.39178,3.44633 0.14155,0.651133 0.33143,1.957785 0.42195,2.90367 0.0905,0.945886 0.34146,3.208073 0.55763,5.027083 0.37989,3.196636 0.62243,20.482681 0.29204,20.813078 -0.0757,0.07566 -0.47052,-0.379381 -0.87746,-1.011197 -2.29328,-3.56064 -8.74789,-11.839032 -13.17008,-16.891435 -3.12792,-3.573692 -12.48318,-12.9755 -15.92803,-16.007291 -5.27967,-4.646607 -5.92028,-5.183637 -5.92028,-4.963042 0,0.126078 0.33496,0.758559 0.74435,1.405512 1.18146,1.867047 4.76452,8.074022 6.33019,10.965863 2.11982,3.915381 8.33112,16.611605 9.31973,19.049999 0.47199,1.164167 1.018,2.473855 1.21336,2.910417 0.19536,0.436563 0.78513,1.924844 1.3106,3.307292 0.52547,1.382447 1.08147,2.811197 1.23556,3.175 0.29699,0.701219 1.26525,3.562864 1.43209,4.232506 0.0545,0.218736 0.34146,1.083414 0.63769,1.921506 0.29623,0.838092 0.72718,2.20731 0.95768,3.042708 0.93434,3.386364 2.47902,9.514047 2.61724,10.382446 0.0811,0.509323 0.25882,1.34276 0.395,1.852083 0.13618,0.509323 0.32523,1.566935 0.42011,2.350249 0.14115,1.16524 0.10663,1.38503 -0.18981,1.20877 -0.42681,-0.25379 -3.40236,-2.47487 -5.654,-4.220398 -2.22157,-1.722219 -5.88801,-4.332302 -8.59896,-6.12147 -0.80036,-0.528223 -1.51474,-1.033876 -1.5875,-1.123674 -0.16732,-0.2065 -4.57665,-3.087562 -7.20989,-4.71096 -0.54571,-0.336426 -1.43868,-0.897052 -1.98438,-1.245835 -5.52742,-3.532826 -19.38073,-10.544917 -19.38073,-9.809893 0,0.06747 1.23943,1.602107 2.75428,3.410294 2.76891,3.305089 3.15144,3.789663 7.01446,8.885834 1.15823,1.527969 2.35362,3.097624 2.65641,3.488124 0.59878,0.772235 7.07928,10.535198 8.30845,12.516798 0.41665,0.67171 0.69686,1.28198 0.62269,1.35615 -0.0742,0.0742 -1.06992,-0.3342 -2.21276,-0.90751 -1.14285,-0.57331 -2.91134,-1.36331 -3.92999,-1.75556 -1.01864,-0.39225 -2.0902,-0.82131 -2.38125,-0.95346 -0.9463,-0.429681 -6.30514,-2.101746 -8.06979,-2.517935 -11.35271,-2.677518 -21.8809996,-2.748373 -33.4697896,-0.225253 -7.6429004,1.664017 -17.9247104,6.044058 -26.1937504,11.158498 -3.39407,2.09925 -3.38835,2.08668 -0.85417,1.87585 6.73701,-0.56049 16.87799,0.0941 23.98565,1.5483 1.0806504,0.2211 2.2117504,0.43733 2.5135504,0.48052 0.30179,0.0432 1.44169,0.31869 2.53309,0.61223 1.09141,0.29354 2.63922,0.70844 3.43959,0.92199 2.46862997,0.6587 4.2614599,1.30091 4.0953599,1.46701 -0.0872,0.0872 -1.0016599,0.18409 -2.03213993,0.21533 -1.03048,0.0312 -3.73196997,0.23091 -6.00330997,0.44369 -2.27134,0.21279 -4.4868904,0.39401 -4.9234504,0.40271 -3.08993,0.0616 -18.81941,2.02051 -23.01875,2.86674 -1.16417,0.2346 -2.44958,0.45586 -2.85647,0.49169 -0.40689,0.0358 -1.59752,0.25708 -2.64583,0.49167 -1.04832,0.23459 -2.79901,0.61724 -3.89041,0.85033 -1.09141,0.23309 -2.10344,0.45313 -2.24896,0.48896 -0.14552,0.0358 0.62839,0.13417 1.71979,0.2185 1.09141,0.0843 3.53219,0.27974 5.42396,0.43425 1.89177,0.1545 4.0349,0.28018 4.7625,0.27928 1.28054,-0.002 4.68957,0.38552 10.45104,1.18674 1.52797,0.21249 3.40307,0.46005 4.16689,0.55014 0.76383,0.0901 1.44567,0.25586 1.51521,0.36838 0.0695,0.11253 -0.61493,0.45384 -1.52106,0.75847 -2.59915,0.87382 -6.07135,2.14332 -6.93916,2.53709 -0.43657,0.19809 -1.09141,0.44716 -1.45521,0.55348 -0.3638,0.10633 -3.63802,1.48057 -7.27604,3.05388 -7.51406,3.24955 -14.72125,6.77837 -20.04697,9.81551 -2.00355,1.14258 -3.69625,2.07741 -3.76156,2.07741 -0.12534,0 -2.4361,1.42198 -7.67689,4.72417 -3.19162,2.01102 -9.29557,6.20771 -12.07862,8.30448 -0.8224,0.6196 -2.06233,1.54328 -2.75539,2.0526 -0.69306,0.50932 -1.79311,1.38076 -2.44455,1.93652 -0.65144,0.55577 -1.46906,1.19697 -1.81693,1.4249 -1.09463,0.71724 -0.50132,0.64956 1.79435,-0.20468 1.22094,-0.45432 3.05333,-1.10714 4.07197,-1.45071 1.01865,-0.34356 3.22131,-1.11136 4.8948,-1.70622 4.82116,-1.71372 9.26249,-3.16483 14.41979,-4.71137 4.06824,-1.21996 4.14155,-1.22944 3.07982,-0.39837 -0.94998,0.7436 -2.95461,2.14197 -8.2392,5.74743 -4.41937,3.01516 -6.20401,4.26968 -7.90862,5.55938 -0.78448,0.59354 -1.73698,1.31113 -2.11667,1.59464 -1.4052,1.04929 -12.14427,9.70564 -14.35883,11.57412 -6.71652,5.66687 -16.918886,15.35497 -16.554146,15.7197 0.0993,0.0994 0.71578,-0.0237 1.36986,-0.27353 0.65408,-0.2498 1.24988,-0.45075 1.32401,-0.44657 0.0741,0.004 0.57692,-0.17713 1.11731,-0.40292 0.54039,-0.22579 1.16763,-0.44694 1.39387,-0.49145 0.22623,-0.0445 0.88759,-0.262 1.469671,-0.48333 1.20264,-0.45729 6.128555,-2.02951 6.780015,-2.164 0.2365,-0.0488 1.66525,-0.45665 3.175,-0.90628 5.82065,-1.7335 5.48605,-1.64165 7.3752,-2.02455 l 0.92604,-0.18769 -0.66146,0.73344 c -0.3638,0.40338 -1.85208,1.67276 -3.30729,2.82084 -6.11355,4.82324 -9.25879,7.58641 -15.315786,13.45528 -5.09125,4.93314 -10.8142,11.03302 -14.64582,15.61045 -1.15722,1.38247 -2.30091,2.67697 -2.54153,2.87667 -1.21482,1.00821 -0.041,0.74466 4.58959,-1.03046 0.80036,-0.30682 1.93146,-0.72055 2.51354,-0.91939 0.58208,-0.19884 3.49911,-1.20878 6.48229,-2.24432 2.98318,-1.03554 5.602551,-1.93065 5.820841,-1.98915 0.82282,-0.2205 6.290845,-2.18184 6.578645,-2.35971 0.16529,-0.10216 0.30052,-0.0596 0.30052,0.0945 0,0.15411 -0.10084,0.2802 -0.2241,0.2802 -0.12325,0 -0.51021,0.25219 -0.85989,0.56042 -0.34969,0.30823 -1.05252,0.84275 -1.56184,1.18781 -1.73452,1.17513 -8.760466,6.75005 -10.318756,8.18769 -0.65485,0.60414 -2.44078,2.21704 -3.96875,3.5842 -3.54573,3.17259 -9.07801,8.70667 -12.93488,12.93911 -1.65715,1.81852 -3.69078,4.02077 -4.51918,4.89389 -0.82841,0.87313 -3.08889,3.4925 -5.02329,5.82084 -1.93441,2.32833 -3.78865,4.54691 -4.12055,4.93017 -1.32062,1.52501 -8.87634,11.64442 -10.69082,14.31827 -1.87824,2.76781 -2.1342,3.08248 -2.1342,2.62381 z m 48.392841,-21.80611 c 3.658365,-7.21292 4.468715,-8.71521 5.191145,-9.62373 0.47566,-0.59819 0.96003,-0.74153 4.36562,-1.29194 4.8292,-0.78048 9.7863,-1.33431 16.53061,-1.84686 7.07311,-0.53755 23.86575,-0.54187 32.14688,-0.008 9.77828,0.63006 17.02569,1.18807 20.90208,1.60934 1.96453,0.21349 4.28625,0.43519 5.15937,0.49265 0.87313,0.0575 2.95672,0.29563 4.63021,0.52924 1.6734904,0.23362 4.4119304,0.60646 6.0854204,0.82854 1.67349,0.22209 4.11426997,0.57882 5.42396,0.79275 5.64842,0.92261 7.50876,1.24322 9.1281196,1.57312 0.94589,0.1927 2.73182,0.5525 3.96875,0.79956 1.23693,0.24705 3.14193,0.65706 4.23334,0.91112 1.0914,0.25406 2.93687,0.68015 4.10104,0.94686 1.16416,0.26671 2.20477,0.55651 2.31245,0.64399 0.10769,0.0875 0.0137,1.04727 -0.20887,2.13286 -0.65304,3.18532 -0.50629,2.9886 -2.06493,2.76805 -0.74886,-0.10597 -1.83782,-0.23113 -2.4199,-0.27814 -0.58209,-0.047 -2.36802,-0.26498 -3.96875,-0.48438 -3.04379,-0.41745 -8.8881996,-1.00002 -14.9489596,-1.49038 -10.47029,-0.84712 -32.4806304,-0.90302 -45.6406304,-0.11592 -9.5778,0.57285 -21.03582,1.58279 -26.9875,2.37873 -1.60073,0.21408 -3.56526,0.44669 -4.36562,0.51691 -1.51533,0.13295 -5.35655,0.68463 -9.32656,1.33949 -7.82272,1.29036 -11.05065,1.85202 -14.536825,2.52941 -1.410431,0.27406 -2.624291,0.4983 -2.697461,0.4983 -0.0732,0 1.27098,-2.76821 2.987011,-6.15157 z m 411.717579,5.88135 c -1.18282,-0.26741 -6.82876,-1.28689 -8.73125,-1.57659 -0.80037,-0.12187 -2.22912,-0.34934 -3.175,-0.50548 -4.60051,-0.75941 -6.84941,-1.09711 -7.9375,-1.19193 -0.65485,-0.0571 -1.905,-0.2331 -2.77813,-0.39118 -0.87312,-0.15809 -2.24234,-0.34514 -3.04271,-0.41568 -0.80036,-0.0705 -2.76489,-0.30744 -4.36562,-0.52646 -10.74866,-1.47065 -29.31439,-2.71265 -43.92083,-2.9382 -16.64224,-0.25699 -30.30146,0.3795 -43.12709,2.00963 -4.9056,0.6235 -6.5643,0.78521 -6.69665,0.65285 -0.12994,-0.12994 -0.65637,-2.34718 -1.01224,-4.26344 -0.16868,-0.90825 -0.35114,-0.82366 3.87243,-1.79528 0.94589,-0.2176 2.73183,-0.63497 3.96875,-0.92749 2.83799,-0.67115 8.56809,-1.71125 13.89063,-2.52136 6.50192,-0.98961 8.44001,-1.26647 9.34774,-1.33531 0.53405,-0.0405 2.34023,-0.26043 4.01372,-0.48872 5.56722,-0.75945 17.5151,-1.83389 26.19375,-2.35552 7.49727,-0.45063 29.38928,-0.45086 35.32187,-3.7e-4 5.70379,0.43311 11.42484,1.02112 14.81667,1.52284 1.45521,0.21525 3.30068,0.45082 4.10104,0.52348 2.42853,0.22048 2.79488,0.48544 4.34124,3.13995 2.65733,4.56161 6.61686,11.91641 7.11704,13.21986 0.18706,0.48746 -0.53125,0.54119 -2.19786,0.1644 z M 17.622146,239.30551 c -0.36381,-0.0572 -1.43537,-0.26936 -2.38125,-0.4714 -4.5191,-0.96529 -14.99422963,-2.72856 -17.5038196,-2.9464 -0.77764,-0.0675 -2.06874,-0.23731 -2.8691,-0.37734 -0.80037,-0.14003 -2.34818,-0.31946 -3.43959,-0.39873 -1.0914,-0.0793 -3.5917104,-0.31138 -5.5562404,-0.51581 -9.90422,-1.03059 -27.8697,-1.36531 -38.76146,-0.72217 -7.74973,0.45761 -15.34987,1.07321 -18.78542,1.52159 -1.60073,0.20891 -3.68432,0.44698 -4.63021,0.52903 -0.94588,0.0821 -2.41224,0.26785 -3.25857,0.41287 -0.84634,0.14502 -2.39415,0.36662 -3.43959,0.49245 -1.04544,0.12583 -3.49748,0.4771 -5.44897,0.7806 -1.9515,0.3035 -3.58623,0.51377 -3.63273,0.46727 -0.11307,-0.11308 1.87817,-3.39134 4.28983,-7.0625 0.71696,-1.09141 1.35247,-2.10344 1.41223,-2.24896 0.12627,-0.30748 5.08102,-7.66024 6.86428,-10.18646 1.79415,-2.54164 6.93654,-9.3515 7.2926,-9.65729 0.16944,-0.14552 0.64013,-0.70496 1.04597,-1.2432 0.8994,-1.19281 2.08616,-1.6226 3.93368,-1.42459 0.76577,0.0821 2.58294,0.21424 4.03815,0.29371 1.45521,0.0795 3.59833,0.25598 4.7625,0.39226 1.16416,0.13628 3.06916,0.3152 4.23333,0.3976 1.16417,0.0824 2.77151,0.26216 3.57188,0.39945 0.80036,0.13728 2.16958,0.31141 3.0427,0.38694 0.87313,0.0755 2.7186,0.31819 4.10105,0.53924 1.38244,0.22106 3.70416,0.58816 5.15937,0.81578 1.45521,0.22762 3.41974,0.58587 4.36563,0.7961 0.94588,0.21024 2.1936,0.44101 2.7727,0.51282 0.5791,0.0718 1.47207,0.23902 1.98438,0.37156 0.5123,0.13255 1.40771,0.31213 1.98979,0.39908 0.58208,0.087 1.47505,0.26778 1.98438,0.40184 0.50932,0.13405 1.28322,0.30509 1.71979,0.38007 0.43656,0.075 1.50812,0.31676 2.38125,0.53729 0.87312,0.22053 2.83765,0.7022 4.36562,1.07036 2.65333,0.63932 5.19119,1.31796 8.0697904,2.1579 0.72761,0.21231 1.50151,0.4169 1.71979,0.45464 0.21829,0.0377 1.05172,0.27436 1.85209,0.52581 0.80036,0.25146 2.11005,0.65096 2.91041,0.8878 0.80037,0.23683 2.46723997,0.77475 3.70417,1.19537 1.2369299,0.42061 2.42755,0.81139 2.64583,0.86839 0.62041,0.162 5.59804,1.90101 6.4822996,2.26468 0.43656,0.17955 0.96725,0.36077 1.17931,0.40272 0.21206,0.0419 0.62878,0.19806 0.92604,0.34691 0.29726,0.14885 1.19532,0.50368 1.99569,0.7885 0.80036,0.28482 2.75199,1.06438 4.33694,1.73235 2.88538,1.21603 3.85013,1.65667 9.87342,4.50949 l 3.23015,1.52991 -0.79375,1.15368 c -0.43657,0.63453 -1.28068,2.16845 -1.8758,3.40872 -0.73925,1.54064 -1.17582,2.18057 -1.37807,2.01995 -0.31664,-0.25147 -12.23792,-5.59292 -12.48252,-5.59292 -0.0801,0 -0.64514,-0.2218 -1.25562,-0.49288 -4.04966,-1.79825 -16.3409796,-5.62717 -20.0889396,-6.25799 -0.47562,-0.08 -1.22196,-0.25671 -1.65852,-0.39258 -0.71799,-0.22345 -2.7917204,-0.64134 -8.5989604,-1.7328 -1.0914,-0.20512 -2.63922,-0.44169 -3.43958,-0.52569 -0.80037,-0.084 -2.22912,-0.27018 -3.175,-0.41372 -0.94589,-0.14354 -3.98198,-0.30757 -6.74688,-0.36451 -3.10805,-0.064 -4.52207,-0.0217 -3.70416,0.11093 0.7276,0.11794 1.79916,0.34296 2.38125,0.50003 0.58208,0.15708 1.47505,0.35556 1.98437,0.44108 0.50932,0.0855 1.34276,0.26557 1.85209,0.40011 0.50932,0.13455 1.40229,0.3197 1.98437,0.41145 0.58208,0.0917 1.13491,0.21373 1.2285,0.27108 0.0936,0.0573 0.92703,0.27541 1.85208,0.48459 2.34879,0.53111 7.43457,1.86032 9.48713,2.47955 0.94588,0.28535 2.7913504,0.83839 4.1010404,1.22896 2.91924,0.87057 6.48855,2.08789 9.12811997,3.11316 1.09140993,0.42393 2.16296993,0.81487 2.38124993,0.86875 1.3001701,0.32096 14.2730197,5.78368 15.2062697,6.4032 0.53696,0.35645 0.41183,0.37964 -0.91876,0.17032 z m 178.858324,-1.03858 c 1.38245,-0.67869 4.06135,-1.88737 5.95312,-2.68597 4.46295,-1.88398 4.71344,-1.98747 5.02709,-2.07695 0.14552,-0.0415 1.39567,-0.50896 2.77812,-1.03875 2.25987,-0.86605 10.85214,-3.81667 11.50938,-3.95236 0.14552,-0.03 0.74083,-0.19032 1.32291,-0.35617 0.58209,-0.16584 1.1774,-0.31784 1.32292,-0.33776 0.14552,-0.0199 0.6813,-0.1986 1.19062,-0.39706 0.50933,-0.19847 1.4023,-0.47244 1.98438,-0.60883 0.58208,-0.13639 2.96333,-0.72888 5.29167,-1.31666 2.32833,-0.58777 4.65005,-1.13958 5.15937,-1.22625 0.50932,-0.0867 1.40112,-0.2837 1.98178,-0.43786 0.58065,-0.15416 1.35455,-0.31872 1.71979,-0.36568 0.36523,-0.047 1.49749,-0.26865 2.51614,-0.49265 1.01865,-0.224 2.20927,-0.45687 2.64583,-0.51751 0.43657,-0.0606 -0.99218,-0.11126 -3.175,-0.11252 -2.18281,-0.001 -5.22174,0.15679 -6.75317,0.35122 -1.53143,0.19442 -3.61503,0.42045 -4.63021,0.50227 -3.11653,0.25119 -10.66079,1.58968 -15.17277,2.69193 -1.50901,0.36865 -2.93776,0.70964 -3.175,0.75777 -0.23724,0.0481 -0.76188,0.21537 -1.16586,0.37166 -0.40398,0.15629 -0.9993,0.33272 -1.32292,0.39206 -0.98739,0.18108 -7.73699,2.38757 -10.24569,3.34939 -0.80037,0.30685 -2.05052,0.77113 -2.77813,1.03172 -2.08874,0.7481 -8.27234,3.42504 -10.45104,4.52436 -1.0914,0.5507 -2.41664,1.1785 -2.94496,1.39512 l -0.96058,0.39385 -2.01598,-3.26187 c -1.10879,-1.79403 -2.01598,-3.31538 -2.01598,-3.38078 0,-0.0654 0.38695,-0.2752 0.8599,-0.46623 0.47294,-0.19103 2.22911,-0.99196 3.9026,-1.77983 1.67349,-0.78788 3.93568,-1.78671 5.02708,-2.21963 1.09141,-0.43293 2.34157,-0.95063 2.77813,-1.15046 3.77685,-1.72875 16.3803,-6.17893 22.48958,-7.94087 0.87313,-0.25182 2.18282,-0.62965 2.91042,-0.83964 0.7276,-0.20999 1.86118,-0.54415 2.51907,-0.74258 0.65788,-0.19843 1.57449,-0.42744 2.03692,-0.50891 0.46242,-0.0815 1.14765,-0.2648 1.52273,-0.40741 0.37509,-0.1426 0.95915,-0.30954 1.29792,-0.37097 0.74278,-0.13469 3.49444,-0.83705 5.34661,-1.36472 0.7404,-0.21094 1.56337,-0.38352 1.82883,-0.38352 0.26546,0 1.08844,-0.16996 1.82883,-0.37769 0.7404,-0.20773 2.29867,-0.57076 3.46284,-0.80674 1.16417,-0.23597 2.89057,-0.59172 3.83646,-0.79054 7.60566,-1.59872 21.21477,-3.67162 26.19375,-3.98974 1.0914,-0.0697 2.93687,-0.24409 4.10104,-0.38744 1.16417,-0.14336 3.92002,-0.33048 6.12411,-0.41581 l 4.00745,-0.15517 0.89438,0.88188 c 0.7688,0.75806 2.7662,3.36927 8.36534,10.93605 0.64608,0.87312 2.44086,3.4925 3.98839,5.82083 1.54754,2.32833 2.87332,4.29286 2.94619,4.36562 0.0729,0.0728 0.30304,0.42995 0.51151,0.79375 0.20848,0.36381 1.12079,1.86956 2.02737,3.34613 2.29936,3.74501 3.34848,5.67156 3.18016,5.83988 -0.079,0.079 -1.18977,-0.0468 -2.46827,-0.27954 -3.78133,-0.68853 -11.58171,-1.86272 -14.2308,-2.14218 -0.7276,-0.0767 -2.81119,-0.31765 -4.63021,-0.53533 -1.81901,-0.21768 -3.66447,-0.38316 -4.10104,-0.36774 -0.43656,0.0154 -3.175,-0.16256 -6.08541,-0.39553 -15.81208,-1.26573 -34.13392,-1.27542 -46.83125,-0.0248 -2.18282,0.215 -4.72351,0.44738 -5.64599,0.5164 -0.92248,0.069 -2.47029,0.25277 -3.43958,0.40835 -0.96929,0.15558 -2.29813,0.3365 -2.95298,0.40205 -2.64729,0.26498 -13.24532,2.16682 -16.20849,2.90865 -3.42904,0.85845 -3.64701,0.73237 -0.98942,-0.57232 z M 33.752926,225.63739 c -3.02791,-1.47163 -5.85833,-2.72877 -8.98703,-3.99162 -1.67349,-0.67548 -3.24946,-1.34405 -3.50214,-1.48572 -0.25269,-0.14167 -0.64126,-0.25758 -0.86349,-0.25758 -0.22223,0 -0.6108,-0.11508 -0.86349,-0.25574 -1.0528,-0.58603 -7.78721,-2.91219 -12.6302596,-4.36267 -0.7276,-0.21792 -1.91823,-0.58831 -2.64583,-0.8231 -0.7276101,-0.23479 -1.5015101,-0.4672 -1.7198001,-0.51647 -0.21828,-0.0493 -1.58749993,-0.40999 -3.04269993,-0.80161 -1.45520997,-0.39161 -3.30067997,-0.8606 -4.10104997,-1.04221 -1.76214,-0.39983 -5.8067604,-1.32205 -8.3343704,-1.90033 -1.01865,-0.23305 -2.14974,-0.45243 -2.51354,-0.48751 -0.3638,-0.0351 -1.61396,-0.25083 -2.77813,-0.47946 -5.36637,-1.0539 -16.48858,-2.57844 -21.56354,-2.95575 -1.0914,-0.0812 -3.23453,-0.28826 -4.7625,-0.46024 -1.66781,-0.18773 -7.08705,-0.31711 -13.55956,-0.32371 -5.92979,-0.006 -10.78159,-0.089 -10.78177,-0.1844 -4.3e-4,-0.22106 1.53112,-2.05584 3.15602,-3.78089 0.69285,-0.73555 2.49853,-2.70346 4.01262,-4.37312 3.86209,-4.2589 8.44001,-8.79841 13.07461,-12.9649 2.18118,-1.96088 4.02532,-3.63294 4.09808,-3.71568 1.30527,-1.48432 12.06085,-9.73513 17.06521,-13.09103 0.89224,-0.59834 0.30731,-0.68554 -1.74357,-0.25995 -1.0781,0.22373 -2.91268,0.59627 -4.07685,0.82786 -1.16416,0.2316 -2.77151,0.5813 -3.57187,0.77711 -0.80037,0.19582 -2.52677,0.61289 -3.83646,0.92682 -1.30969,0.31393 -2.67891,0.68634 -3.04271,0.82757 -0.3638,0.14124 -0.89958,0.29186 -1.19062,0.3347 -0.29104,0.0429 -1.42214,0.39448 -2.51354,0.78139 -1.09141,0.38692 -2.16297,0.7479 -2.38125,0.80218 -0.21829,0.0543 -1.46844,0.54059 -2.77813,1.08068 -3.0774,1.26906 -5.68854,2.20124 -5.68854,2.03082 0,-0.0739 0.1625,-0.26651 0.36112,-0.42807 0.19862,-0.16156 1.5376,-1.24625 2.97551,-2.41042 1.43791,-1.16416 2.79346,-2.30903 3.01232,-2.54414 0.21886,-0.23511 1.14727,-1.00902 2.06313,-1.71979 0.91586,-0.71077 2.58274,-2.03304 3.70417,-2.93836 1.12142,-0.90532 2.8861,-2.27454 3.92149,-3.04271 1.0354,-0.76816 3.71431,-2.77066 5.95313,-4.45 3.69127,-2.76881 6.62289,-4.9026 8.42838,-6.13462 0.36811,-0.25118 1.22753,-0.8465 1.90982,-1.32291 2.75802,-1.92581 9.17464,-6.16687 11.32718,-7.48669 0.50932,-0.31229 1.87854,-1.16735 3.04271,-1.90014 7.0809704,-4.45716 14.8904303,-8.71982 23.43925,-12.79391 0.43279,-0.20625 5.36943,-2.19613 6.64575,-2.67879 0.39394,-0.14897 0.77936,-0.2621 0.85649,-0.2514 0.0771,0.0107 0.68311,-0.21325 1.34661,-0.49766 0.6635,-0.28441 1.29011,-0.49435 1.39247,-0.46654 0.10235,0.0278 0.78141,-0.13842 1.50901,-0.36941 7.29098,-2.31469 16.09007,-3.24276 22.48958,-2.37206 5.30373,0.72161 11.05037,2.47116 14.8829,4.53107 0.76403,0.41065 1.44056,0.66344 1.5034,0.56176 0.0628,-0.10168 -0.0572,-1.57569 -0.26676,-3.27559 -0.20956,-1.6999 -0.35645,-3.18286 -0.32642,-3.29546 0.0726,-0.2723 -0.31523,-2.6756 -0.51641,-3.19989 -0.51178,-1.33366 4.88436,4.31611 7.12259,7.45738 3.23998,4.5472 6.4234,10.76716 8.41402,16.43986 0.45958,1.30969 1.01095,2.87136 1.22526,3.47039 0.21431,0.59902 0.44193,1.36061 0.50583,1.6924 0.0639,0.3318 0.25808,1.03232 0.43152,1.5567 0.17343,0.52439 0.34631,1.19156 0.38417,1.4826 0.0379,0.29104 0.25662,1.74877 0.48614,3.2394 0.22952,1.49063 0.41731,3.71701 0.41731,4.94751 0,2.0873 -0.78638,7.1168 -1.31813,8.43045 -0.49952,1.23401 -2.10424,6.76104 -2.51155,8.65034 -0.23529,1.09141 -0.61777,2.87735 -0.84995,3.96875 -2.08164,9.78505 -4.26139,14.43343 -10.2222,21.79916 -4.79576,5.9261 -11.7662,12.25933 -18.96484,17.23115 -0.80037,0.55278 -1.51474,1.07819 -1.5875,1.16758 -0.0728,0.0894 -0.96573,0.80663 -1.98438,1.59386 -1.01864,0.78724 -2.96808,2.54083 -4.33207,3.89688 -1.364,1.35605 -2.61416,2.45665 -2.77813,2.44578 -0.16397,-0.0109 -1.076,-0.39782 -2.02672,-0.8599 z m 16.97163,-64.39077 c 2.23985,-1.05517 4.18711,-2.98844 5.24704,-5.20933 0.74721,-1.56564 0.84374,-2.03022 0.84655,-4.07442 0.002,-1.41762 -0.1536,-2.74198 -0.40341,-3.43466 -0.85242,-2.36359 -2.92992,-4.63255 -5.3228,-5.81335 -1.30675,-0.64483 -4.1582,-1.21285 -5.11174,-1.01828 -0.39001,0.0796 -1.12085,0.21234 -1.62411,0.29502 -2.3486,0.38587 -5.56011,3.12125 -6.77174,5.76779 -1.23055,2.68787 -1.09652,6.39574 0.31998,8.85203 2.84422,4.93206 8.13188,6.84383 12.82023,4.6352 z M 174.7638,225.47238 c -0.46174,-0.57457 -1.9854,-2.04051 -3.38591,-3.25763 -2.92515,-2.54213 -4.8685,-4.01589 -8.76409,-6.64636 -0.65484,-0.44218 -1.30969,-0.93306 -1.45521,-1.09084 -0.14552,-0.15778 -1.21416,-0.99602 -2.37476,-1.86275 -1.1606,-0.86673 -3.96049,-3.42134 -6.22198,-5.67692 -7.61153,-7.59161 -12.11259,-13.93953 -13.97663,-19.71145 -0.78493,-2.43048 -1.17661,-4.02687 -2.56421,-10.45105 -0.68031,-3.14964 -1.40625,-5.80621 -2.13286,-7.8052 -1.4286,-3.93027 -2.23669,-8.33143 -2.22221,-12.10295 0.009,-2.30935 0.52025,-6.43614 1.04241,-8.4121 0.17161,-0.64943 0.4955,-1.89516 0.71975,-2.76829 0.22425,-0.87312 0.58426,-2.06375 0.80002,-2.64583 0.21577,-0.58208 0.4328,-1.23693 0.4823,-1.45521 0.55783,-2.46009 4.40135,-10.44381 6.75523,-14.03191 2.31935,-3.53545 5.23669,-7.24067 7.28421,-9.25142 l 1.75124,-1.71979 -0.16378,1.05833 c -0.0901,0.58208 -0.342,2.60615 -0.55982,4.49792 -0.21782,1.89177 -0.45713,3.70747 -0.53179,4.03489 -0.1654,0.72541 0.1276,0.74581 1.40624,0.0979 0.5399,-0.27357 1.75555,-0.80176 2.70143,-1.17375 9.94776,-3.91214 18.40158,-4.69011 28.83959,-2.65396 2.41067,0.47025 5.97662,1.34974 6.87916,1.69665 0.36381,0.13983 0.89959,0.30151 1.19063,0.35928 0.54831,0.10883 5.41814,1.83016 6.35,2.24453 0.76099,0.33838 2.09947,0.91059 4.35196,1.8605 6.45364,2.72161 18.06337,9.28043 30.00236,16.94958 0.7929,0.50932 2.43629,1.55804 3.65199,2.33049 1.21569,0.77244 3.40098,2.23478 4.85619,3.24964 1.45521,1.01486 3.95552,2.7441 5.55625,3.84274 1.60073,1.09865 3.62479,2.5265 4.49792,3.17301 0.87312,0.6465 2.25943,1.64461 3.08068,2.21802 0.82125,0.57341 1.65469,1.20029 1.85208,1.39308 0.1974,0.19279 1.35486,1.11969 2.57214,2.05979 6.26429,4.83787 14.37272,11.40526 14.2424,11.53558 -0.055,0.055 -0.9821,-0.26607 -2.06014,-0.71356 -1.96578,-0.816 -7.63973,-2.83425 -8.50951,-3.02686 -0.25521,-0.0565 -0.56721,-0.16654 -0.69334,-0.24449 -0.21796,-0.13471 -0.8903,-0.32806 -5.19265,-1.49328 -2.00503,-0.54303 -9.49204,-2.28157 -10.82322,-2.51323 -0.45014,-0.0783 -1.63051,-0.32633 -2.62303,-0.55109 -0.99252,-0.22476 -1.85392,-0.35932 -1.91422,-0.29902 -0.10237,0.10237 1.0993,1.0306 3.34917,2.5871 0.93238,0.64503 2.50025,1.85046 7.14279,5.49158 2.80177,2.19742 6.6672,5.4865 8.96325,7.6268 0.94935,0.88496 3.27391,3.04759 5.16568,4.80585 4.06133,3.7747 9.04479,8.82291 13.77901,13.95806 1.87823,2.03729 3.50515,3.74385 3.61537,3.79236 0.92934,0.40897 -1.35457,0.53715 -11.63969,0.65324 -6.51206,0.0735 -12.73308,0.25266 -13.82448,0.39812 -1.09141,0.14546 -3.11547,0.34038 -4.49792,0.43317 -1.38245,0.0928 -3.82323,0.34321 -5.42396,0.55649 -1.60073,0.21329 -4.27963,0.57065 -5.95312,0.79416 -3.34439,0.44665 -6.73757,0.99458 -9.78959,1.58082 -1.0914,0.20963 -2.28203,0.432 -2.64583,0.49414 -1.16467,0.19895 -6.18525,1.23911 -7.14375,1.48005 -0.50932,0.12802 -1.75948,0.42526 -2.77812,0.66051 -2.8813,0.66544 -4.91942,1.18686 -6.21771,1.59071 -0.65485,0.2037 -1.59122,0.44033 -2.08083,0.52584 -0.48962,0.0855 -1.30138,0.32729 -1.80391,0.53726 -0.50254,0.20997 -0.99492,0.36189 -1.09417,0.33759 -0.29638,-0.0726 -10.50731,3.22179 -13.27734,4.28366 -0.80037,0.30681 -2.22912,0.84201 -3.175,1.18932 -2.02875,0.74491 -6.98263,2.81378 -8.86799,3.7035 -2.17162,1.0248 -5.47909,2.52135 -5.57237,2.52135 -0.0477,0 -0.46457,-0.4701 -0.92631,-1.04467 z m -5.76825,-64.08548 c 2.90812,-1.35011 4.95861,-3.87093 5.82118,-7.15639 0.60477,-2.30353 0.61158,-2.73354 0.076,-4.80131 -0.57866,-2.23403 -2.26898,-4.53653 -4.36224,-5.94212 -2.00669,-1.34746 -3.27652,-1.74299 -5.53542,-1.72419 -5.27589,0.0439 -9.46727,4.11545 -10.16094,9.87036 -0.14755,1.22412 0.37954,3.48375 1.19152,5.10802 1.13343,2.2673 3.68763,4.29925 6.45588,5.13588 1.76874,0.53455 4.79765,0.30659 6.51404,-0.49025 z M -34.531654,52.884592 c -0.81735,-0.473136 -1.88891,-1.179088 -2.38125,-1.568781 -0.49234,-0.389692 -2.22319,-1.69938 -3.84634,-2.910416 -11.55445,-8.620805 -21.40495,-20.567062 -28.21379,-34.216468 -3.19206,-6.3989934 -5.21428,-11.4995644 -6.66112,-16.8010414 -0.25814,-0.945885 -0.62958,-2.255572 -0.82542,-2.910416 -0.19583,-0.654844 -0.4068,-1.488281 -0.46881,-1.852083 -0.062,-0.363802 -0.25137,-1.174953 -0.42079,-1.802557 -0.16942,-0.627604 -0.34873,-1.4610406 -0.39848,-1.8520826 -0.0498,-0.391042 -0.27524,-1.723016 -0.5011,-2.959943 -0.91698,-5.021879 -1.23119,-9.353261 -1.23119,-16.97179 0,-7.837853 0.19455,-9.950116 1.01997,-11.074043 0.72679,-0.989626 2.16382,-1.378249 3.96677,-1.072753 2.37951,0.403189 6.52256,1.354401 9.82993,2.256873 0.65484,0.178686 1.96453,0.536434 2.91042,0.794995 0.94588,0.258562 3.32713,0.991791 5.29166,1.629398 1.96453,0.637606 3.75047,1.205821 3.96875,1.262699 0.55681,0.145088 4.46747,1.630306 5.95313,2.26092 0.29104,0.123537 1.24354,0.493259 2.11666,0.821605 0.87313,0.328345 2.30188,0.920752 3.175,1.316458 0.87313,0.395707 2.48047,1.10701 3.57188,1.580674 3.01416,1.308125 10.51953,5.097385 14.81667,7.48053 6.37895,3.537703 10.67473,6.194689 17.4172604,10.772767 0.81334,0.552247 4.22951,3.0820026 5.57063997,4.1251926 0.45941,0.35735 -3.86863997,0.229122 -9.33693997,-0.276628 -2.0510004,-0.189691 -6.4675304,-0.357905 -9.8145104,-0.373809 l -6.08541,-0.02891 2.38125,1.014264 c 4.20822,1.792442 9.87561,4.873892 14.2591004,7.75290801 1.29407,0.849926 2.43247,1.54532 2.5298,1.54532 0.0973,0 0.40775,0.20984199 0.68985,0.46631699 0.2821,0.256474 1.76307,1.353585 3.29104,2.438024 4.4529299,3.160359 8.09333,6.02385 7.90176,6.215423 -0.0562,0.0562 -1.05342,-0.06541 -2.21604,-0.270243 C 2.5660763,9.4721586 0.78141637,9.2398356 -0.23723363,9.1607226 -1.2558836,9.0816126 -2.8036936,8.8984916 -3.6768136,8.7537946 -6.8366536,8.2301356 -18.146474,7.6685676 -21.856364,7.8511236 l -3.62745,0.1785 1.51079,1.115562 c 3.81314,2.8156014 10.84509,9.7805494 15.3972804,15.2505544 1.01114,1.215007 1.28088,1.701466 1.02011,1.839685 -0.19499,0.103348 -1.54514,0.329001 -3.0003504,0.501451 -6.31833,0.748756 -12.97621,1.74075 -15.50582,2.310297 -0.96111,0.216397 -2.03267,0.428172 -2.38125,0.47061 -0.79435,0.09671 -2.33651,0.492607 -5.44781,1.398534 l -2.43281,0.708365 2.03593,0.753256 c 1.11976,0.41429 2.39311,0.91248 2.82968,1.107087 0.43656,0.194608 1.68672,0.734697 2.77812,1.200199 2.38142,1.015711 5.56832,2.727444 7.99584,4.294682 l 1.77813,1.147984 -3.23334,3.043962 c -1.77833,1.674179 -4.84067,4.708069 -6.80519,6.741977 -1.96451,2.033908 -3.69092,3.727939 -3.83645,3.764513 -0.14554,0.03657 -0.93335,-0.320613 -1.7507,-0.79375 z M 240.72008,48.910157 c -2.57642,-2.513167 -5.6369,-5.491014 -6.80107,-6.617437 l -2.11667,-2.048042 0.66146,-0.524585 c 1.35446,-1.074185 9.7909,-5.555124 10.45885,-5.555124 0.0598,0 0.73741,-0.285085 1.50571,-0.633522 0.76829,-0.348437 1.98291,-0.830221 2.69914,-1.07063 2.18492,-0.73339 2.19658,-0.803953 0.23984,-1.451594 -3.98924,-1.320361 -10.51978,-2.708238 -16.75562,-3.56092 -5.29926,-0.724616 -9.37268,-1.252128 -9.98802,-1.293458 -0.32742,-0.02199 -0.59532,-0.126648 -0.59532,-0.232568 0,-0.393956 3.25418,-4.218113 6.25291,-7.348139 3.14,-3.277474 7.07487,-6.830251 10.16636,-9.1791644 l 1.69973,-1.291463 -1.32043,-0.175258 c -3.42508,-0.454602 -12.6603,-0.09102 -19.04752,0.749874 -1.74625,0.229899 -3.67576,0.456357 -4.28779,0.503241 -0.61203,0.04688 -1.80266,0.208426 -2.64583,0.358985 -0.84318,0.150559 -2.12836,0.337239 -2.85597,0.414844 l -1.32291,0.1410994 0.94776,-0.8641014 c 1.66337,-1.516541 4.79652,-4.033582 7.38661,-5.934096 2.37349,-1.741578 8.60776,-5.910213 8.83884,-5.910213 0.0588,0 0.97586,-0.535781 2.03798,-1.190624 1.06213,-0.654844 2.03094,-1.190625 2.15291,-1.190625 0.12197,0 0.36558,-0.127592 0.54133,-0.283538 0.17576,-0.155946 2.21454,-1.211117 4.53062,-2.344824 l 4.21105,-2.061285 -5.13709,0.10623 c -2.8254,0.05843 -7.10163,0.278899 -9.50272,0.489937 -2.4011,0.211038 -5.53853,0.445252 -6.97207,0.520476 -1.43355,0.07522 -2.92183,0.203051 -3.30729,0.284061 -0.68279,0.143495 -0.67699,0.125823 0.22519,-0.685833 0.84108,-0.756683 1.77227,-1.4460426 5.17415,-3.8304316 3.19448,-2.239016 10.08333,-6.746875 10.31049,-6.746875 0.0662,0 0.95624,-0.535782 1.97786,-1.190625 1.02162,-0.654844 1.91268,-1.190625 1.98014,-1.190625 0.0675,0 1.64381,-0.872484 3.50302,-1.938854 4.21488,-2.417486 8.34838,-4.501144 13.30226,-6.705535 2.11005,-0.938937 4.19364,-1.866106 4.63021,-2.060375 0.87811,-0.390758 4.50636,-1.843499 5.95312,-2.383614 0.91609,-0.342001 1.66735,-0.621388 4.49792,-1.672724 2.912,-1.081586 11.30819,-3.686761 12.68225,-3.935062 0.37356,-0.0675 1.51264,-0.355516 2.53129,-0.640027 5.79567,-1.618746 10.56062,-2.234801 11.53486,-1.491332 1.35169,1.031507 1.82102,4.108587 1.82481,11.963981 0.003,6.686713 -0.63452,13.611142 -1.71798,18.653125 -0.20326,0.945885 -0.44086,2.13651 -0.52801,2.6458326 -0.0872,0.509323 -0.32501,1.491589 -0.52858,2.182813 -0.20356,0.691223 -0.32342,1.25677 -0.26634,1.25677 0.0571,0 -0.12152,0.654844 -0.39689,1.455209 -0.27536,0.800364 -0.45276,1.455208 -0.39422,1.455208 0.0937,0 -2.29521,6.98796 -2.98487,8.73125 -0.14392,0.363802 -0.27292,0.720989 -0.28667,0.79375 -0.0138,0.07276 -0.78583,1.816405 -1.71573,3.8747674 -2.4358,5.39167 -6.39647,12.153705 -10.29019,17.568427 -5.76423,8.015878 -16.66377,18.445023 -25.04358,23.962749 -0.63804,0.420116 -1.47148,0.97158 -1.85209,1.225475 -0.38061,0.253896 -0.7867,0.462255 -0.90241,0.463021 -0.11571,7.66e-4 -2.31837,-2.054835 -4.89479,-4.568002 z"
       id="path1" /></g></svg>
